<?xml version="1.0" encoding="UTF-8" standalone="no"?>
<!DOCTYPE svg PUBLIC "-//W3C//DTD SVG 1.1//EN"
 "http://www.w3.org/Graphics/SVG/1.1/DTD/svg11.dtd">
<!-- Generated by graphviz version 2.40.1 (20161225.0304)
 -->
<!-- Title: characters Pages: 1 -->
<svg width="1267pt" height="1049pt"
 viewBox="0.00 0.00 1267.00 1049.00" xmlns="http://www.w3.org/2000/svg" xmlns:xlink="http://www.w3.org/1999/xlink">
<g id="graph0" class="graph" transform="scale(1 1) rotate(0) translate(4 1045)">
<title>characters</title>
<polygon fill="#ffffff" stroke="transparent" points="-4,4 -4,-1045 1263,-1045 1263,4 -4,4"/>
<!-- characters -->
<g id="node1" class="node">
<title>characters</title>
<polygon fill="#efefef" stroke="transparent" points="519,-622.5 519,-657.5 725,-657.5 725,-622.5 519,-622.5"/>
<polygon fill="none" stroke="#000000" points="519,-622.5 519,-657.5 725,-657.5 725,-622.5 519,-622.5"/>
<text text-anchor="start" x="531.3674" y="-635.3" font-family="Arial Bold" font-size="18.00" fill="#000000">characters</text>
<text text-anchor="start" x="615.3788" y="-635.3" font-family="Arial" font-size="14.00" fill="#000000"> </text>
<text text-anchor="start" x="619.2694" y="-635.3" font-family="Arial" font-size="14.00" fill="#666666">[BASE TABLE]</text>
<polygon fill="none" stroke="#000000" points="519,-592.5 519,-622.5 725,-622.5 725,-592.5 519,-592.5"/>
<text text-anchor="start" x="526" y="-603.9" font-family="Arial" font-size="14.00" fill="#000000">id </text>
<text text-anchor="start" x="540.7798" y="-603.9" font-family="Arial" font-size="14.00" fill="#666666">[bigint(20)]</text>
<polygon fill="none" stroke="#000000" points="519,-562.5 519,-592.5 725,-592.5 725,-562.5 519,-562.5"/>
<text text-anchor="start" x="525.9285" y="-573.9" font-family="Arial" font-size="14.00" fill="#000000">character_name </text>
<text text-anchor="start" x="630.9523" y="-573.9" font-family="Arial" font-size="14.00" fill="#666666">[varchar(255)]</text>
<polygon fill="none" stroke="#000000" points="519,-532.5 519,-562.5 725,-562.5 725,-532.5 519,-532.5"/>
<text text-anchor="start" x="526" y="-543.9" font-family="Arial" font-size="14.00" fill="#000000">pc_number </text>
<text text-anchor="start" x="599.9074" y="-543.9" font-family="Arial" font-size="14.00" fill="#666666">[int(11)]</text>
<polygon fill="none" stroke="#000000" points="519,-502.5 519,-532.5 725,-532.5 725,-502.5 519,-502.5"/>
<text text-anchor="start" x="526" y="-513.9" font-family="Arial" font-size="14.00" fill="#000000">room_id </text>
<text text-anchor="start" x="580.4488" y="-513.9" font-family="Arial" font-size="14.00" fill="#666666">[bigint(20)]</text>
<polygon fill="none" stroke="#000000" points="519,-472.5 519,-502.5 725,-502.5 725,-472.5 519,-472.5"/>
<text text-anchor="start" x="526" y="-483.9" font-family="Arial" font-size="14.00" fill="#000000">created_at </text>
<text text-anchor="start" x="596.028" y="-483.9" font-family="Arial" font-size="14.00" fill="#666666">[datetime(6)]</text>
<polygon fill="none" stroke="#000000" points="519,-442.5 519,-472.5 725,-472.5 725,-442.5 519,-442.5"/>
<text text-anchor="start" x="526" y="-453.9" font-family="Arial" font-size="14.00" fill="#000000">updated_at </text>
<text text-anchor="start" x="599.9326" y="-453.9" font-family="Arial" font-size="14.00" fill="#666666">[datetime(6)]</text>
<polygon fill="none" stroke="#000000" stroke-width="3" points="517.5,-441.5 517.5,-659.5 726.5,-659.5 726.5,-441.5 517.5,-441.5"/>
</g>
<!-- rooms -->
<g id="node6" class="node">
<title>rooms</title>
<polygon fill="#efefef" stroke="transparent" points="517,-282.5 517,-317.5 727,-317.5 727,-282.5 517,-282.5"/>
<polygon fill="none" stroke="#000000" points="517,-282.5 517,-317.5 727,-317.5 727,-282.5 517,-282.5"/>
<text text-anchor="start" x="548.3747" y="-295.3" font-family="Arial Bold" font-size="18.00" fill="#000000">rooms</text>
<text text-anchor="start" x="598.3715" y="-295.3" font-family="Arial" font-size="14.00" fill="#000000"> </text>
<text text-anchor="start" x="602.2621" y="-295.3" font-family="Arial" font-size="14.00" fill="#666666">[BASE TABLE]</text>
<polygon fill="none" stroke="#000000" points="517,-252.5 517,-282.5 727,-282.5 727,-252.5 517,-252.5"/>
<text text-anchor="start" x="524" y="-263.9" font-family="Arial" font-size="14.00" fill="#000000">id </text>
<text text-anchor="start" x="538.7798" y="-263.9" font-family="Arial" font-size="14.00" fill="#666666">[bigint(20)]</text>
<polygon fill="none" stroke="#000000" points="517,-222.5 517,-252.5 727,-252.5 727,-222.5 517,-222.5"/>
<text text-anchor="start" x="524" y="-233.9" font-family="Arial" font-size="14.00" fill="#000000">room_name </text>
<text text-anchor="start" x="602.568" y="-233.9" font-family="Arial" font-size="14.00" fill="#666666">[varchar(255)]</text>
<polygon fill="none" stroke="#000000" points="517,-192.5 517,-222.5 727,-222.5 727,-192.5 517,-192.5"/>
<text text-anchor="start" x="524" y="-203.9" font-family="Arial" font-size="14.00" fill="#000000">player_number </text>
<text text-anchor="start" x="621.2398" y="-203.9" font-family="Arial" font-size="14.00" fill="#666666">[int(11)]</text>
<polygon fill="none" stroke="#000000" points="517,-162.5 517,-192.5 727,-192.5 727,-162.5 517,-162.5"/>
<text text-anchor="start" x="523.9825" y="-173.9" font-family="Arial" font-size="14.00" fill="#000000">password_digest </text>
<text text-anchor="start" x="632.8983" y="-173.9" font-family="Arial" font-size="14.00" fill="#666666">[varchar(255)]</text>
<polygon fill="none" stroke="#000000" points="517,-132.5 517,-162.5 727,-162.5 727,-132.5 517,-132.5"/>
<text text-anchor="start" x="524" y="-143.9" font-family="Arial" font-size="14.00" fill="#000000">user_id </text>
<text text-anchor="start" x="573.7882" y="-143.9" font-family="Arial" font-size="14.00" fill="#666666">[bigint(20)]</text>
<polygon fill="none" stroke="#000000" points="517,-102.5 517,-132.5 727,-132.5 727,-102.5 517,-102.5"/>
<text text-anchor="start" x="524" y="-113.9" font-family="Arial" font-size="14.00" fill="#000000">created_at </text>
<text text-anchor="start" x="594.028" y="-113.9" font-family="Arial" font-size="14.00" fill="#666666">[datetime(6)]</text>
<polygon fill="none" stroke="#000000" points="517,-72.5 517,-102.5 727,-102.5 727,-72.5 517,-72.5"/>
<text text-anchor="start" x="524" y="-83.9" font-family="Arial" font-size="14.00" fill="#000000">updated_at </text>
<text text-anchor="start" x="597.9326" y="-83.9" font-family="Arial" font-size="14.00" fill="#666666">[datetime(6)]</text>
<polygon fill="none" stroke="#000000" points="517,-42.5 517,-72.5 727,-72.5 727,-42.5 517,-42.5"/>
<text text-anchor="start" x="524" y="-53.9" font-family="Arial" font-size="14.00" fill="#000000">token </text>
<text text-anchor="start" x="562.129" y="-53.9" font-family="Arial" font-size="14.00" fill="#666666">[varchar(255)]</text>
</g>
<!-- characters&#45;&gt;rooms -->
<g id="edge5" class="edge">
<title>characters:room_id&#45;&gt;rooms:id</title>
<path fill="none" stroke="#000000" d="M735.0972,-516.7828C836.1292,-502.1191 834.6423,-267.5 727,-267.5"/>
<polygon fill="#000000" stroke="#000000" points="734.9749,-516.7914 724.6811,-513.0113 729.9874,-517.1457 725,-517.5 725,-517.5 725,-517.5 729.9874,-517.1457 725.3189,-521.9887 734.9749,-516.7914 734.9749,-516.7914"/>
<text text-anchor="start" x="731.616" y="-527.5" font-family="Arial" font-size="10.00" fill="#000000">FOREIGN KEY (room_id) REFERENCES rooms (id)</text>
</g>
<!-- conditions -->
<g id="node2" class="node">
<title>conditions</title>
<polygon fill="#efefef" stroke="transparent" points="92,-947.5 92,-982.5 284,-982.5 284,-947.5 92,-947.5"/>
<polygon fill="none" stroke="#000000" points="92,-947.5 92,-982.5 284,-982.5 284,-947.5 92,-947.5"/>
<text text-anchor="start" x="98.8623" y="-960.3" font-family="Arial Bold" font-size="18.00" fill="#000000">conditions</text>
<text text-anchor="start" x="179.8839" y="-960.3" font-family="Arial" font-size="14.00" fill="#000000"> </text>
<text text-anchor="start" x="183.7745" y="-960.3" font-family="Arial" font-size="14.00" fill="#666666">[BASE TABLE]</text>
<polygon fill="none" stroke="#000000" points="92,-917.5 92,-947.5 284,-947.5 284,-917.5 92,-917.5"/>
<text text-anchor="start" x="99" y="-928.9" font-family="Arial" font-size="14.00" fill="#000000">id </text>
<text text-anchor="start" x="113.7798" y="-928.9" font-family="Arial" font-size="14.00" fill="#666666">[bigint(20)]</text>
<polygon fill="none" stroke="#000000" points="92,-887.5 92,-917.5 284,-917.5 284,-887.5 92,-887.5"/>
<text text-anchor="start" x="99" y="-898.9" font-family="Arial" font-size="14.00" fill="#000000">state_id </text>
<text text-anchor="start" x="151.9088" y="-898.9" font-family="Arial" font-size="14.00" fill="#666666">[int(11)]</text>
<polygon fill="none" stroke="#000000" points="92,-857.5 92,-887.5 284,-887.5 284,-857.5 92,-857.5"/>
<text text-anchor="start" x="99" y="-868.9" font-family="Arial" font-size="14.00" fill="#000000">character_id </text>
<text text-anchor="start" x="179.9046" y="-868.9" font-family="Arial" font-size="14.00" fill="#666666">[bigint(20)]</text>
<polygon fill="none" stroke="#000000" points="92,-827.5 92,-857.5 284,-857.5 284,-827.5 92,-827.5"/>
<text text-anchor="start" x="99" y="-838.9" font-family="Arial" font-size="14.00" fill="#000000">created_at </text>
<text text-anchor="start" x="169.028" y="-838.9" font-family="Arial" font-size="14.00" fill="#666666">[datetime(6)]</text>
<polygon fill="none" stroke="#000000" points="92,-797.5 92,-827.5 284,-827.5 284,-797.5 92,-797.5"/>
<text text-anchor="start" x="99" y="-808.9" font-family="Arial" font-size="14.00" fill="#000000">updated_at </text>
<text text-anchor="start" x="172.9326" y="-808.9" font-family="Arial" font-size="14.00" fill="#666666">[datetime(6)]</text>
</g>
<!-- conditions&#45;&gt;characters -->
<g id="edge1" class="edge">
<title>conditions:character_id&#45;&gt;characters:id</title>
<path fill="none" stroke="#000000" d="M293.9943,-871.6735C341.7068,-862.945 299.5307,-787.0825 336,-740 397.4902,-660.6151 418.5858,-607.5 519,-607.5"/>
<polygon fill="#000000" stroke="#000000" points="293.966,-871.6758 283.6291,-868.0153 288.983,-872.0879 284,-872.5 284,-872.5 284,-872.5 288.983,-872.0879 284.3709,-876.9847 293.966,-871.6758 293.966,-871.6758"/>
<text text-anchor="start" x="6.719" y="-882.5" font-family="Arial" font-size="10.00" fill="#000000">FOREIGN KEY (character_id) REFERENCES characters (id)</text>
</g>
<!-- feelings -->
<g id="node3" class="node">
<title>feelings</title>
<polygon fill="#efefef" stroke="transparent" points="389,-962.5 389,-997.5 562,-997.5 562,-962.5 389,-962.5"/>
<polygon fill="none" stroke="#000000" points="389,-962.5 389,-997.5 562,-997.5 562,-962.5 389,-962.5"/>
<text text-anchor="start" x="395.8654" y="-975.3" font-family="Arial Bold" font-size="18.00" fill="#000000">feelings</text>
<text text-anchor="start" x="457.8808" y="-975.3" font-family="Arial" font-size="14.00" fill="#000000"> </text>
<text text-anchor="start" x="461.7714" y="-975.3" font-family="Arial" font-size="14.00" fill="#666666">[BASE TABLE]</text>
<polygon fill="none" stroke="#000000" points="389,-932.5 389,-962.5 562,-962.5 562,-932.5 389,-932.5"/>
<text text-anchor="start" x="396" y="-943.9" font-family="Arial" font-size="14.00" fill="#000000">id </text>
<text text-anchor="start" x="410.7798" y="-943.9" font-family="Arial" font-size="14.00" fill="#666666">[bigint(20)]</text>
<polygon fill="none" stroke="#000000" points="389,-902.5 389,-932.5 562,-932.5 562,-902.5 389,-902.5"/>
<text text-anchor="start" x="396" y="-913.9" font-family="Arial" font-size="14.00" fill="#000000">feel_id </text>
<text text-anchor="start" x="441.1248" y="-913.9" font-family="Arial" font-size="14.00" fill="#666666">[int(11)]</text>
<polygon fill="none" stroke="#000000" points="389,-872.5 389,-902.5 562,-902.5 562,-872.5 389,-872.5"/>
<text text-anchor="start" x="396" y="-883.9" font-family="Arial" font-size="14.00" fill="#000000">feeling_to </text>
<text text-anchor="start" x="460.5806" y="-883.9" font-family="Arial" font-size="14.00" fill="#666666">[varchar(255)]</text>
<polygon fill="none" stroke="#000000" points="389,-842.5 389,-872.5 562,-872.5 562,-842.5 389,-842.5"/>
<text text-anchor="start" x="396" y="-853.9" font-family="Arial" font-size="14.00" fill="#000000">character_id </text>
<text text-anchor="start" x="476.9046" y="-853.9" font-family="Arial" font-size="14.00" fill="#666666">[bigint(20)]</text>
<polygon fill="none" stroke="#000000" points="389,-812.5 389,-842.5 562,-842.5 562,-812.5 389,-812.5"/>
<text text-anchor="start" x="396" y="-823.9" font-family="Arial" font-size="14.00" fill="#000000">created_at </text>
<text text-anchor="start" x="466.028" y="-823.9" font-family="Arial" font-size="14.00" fill="#666666">[datetime(6)]</text>
<polygon fill="none" stroke="#000000" points="389,-782.5 389,-812.5 562,-812.5 562,-782.5 389,-782.5"/>
<text text-anchor="start" x="396" y="-793.9" font-family="Arial" font-size="14.00" fill="#000000">updated_at </text>
<text text-anchor="start" x="469.9326" y="-793.9" font-family="Arial" font-size="14.00" fill="#666666">[datetime(6)]</text>
</g>
<!-- feelings&#45;&gt;characters -->
<g id="edge2" class="edge">
<title>feelings:character_id&#45;&gt;characters:id</title>
<path fill="none" stroke="#000000" d="M572.3037,-856.3783C609.7946,-847.2082 582.4564,-783.8053 562,-740 551.4539,-717.4165 529.5461,-726.5835 519,-704 500.8528,-665.1395 476.1111,-607.5 519,-607.5"/>
<polygon fill="#000000" stroke="#000000" points="571.9413,-856.4176 561.5129,-853.0264 566.9706,-856.9588 562,-857.5 562,-857.5 562,-857.5 566.9706,-856.9588 562.4871,-861.9736 571.9413,-856.4176 571.9413,-856.4176"/>
<text text-anchor="start" x="568.719" y="-867.5" font-family="Arial" font-size="10.00" fill="#000000">FOREIGN KEY (character_id) REFERENCES characters (id)</text>
</g>
<!-- last_resorts -->
<g id="node4" class="node">
<title>last_resorts</title>
<polygon fill="#efefef" stroke="transparent" points="666,-962.5 666,-997.5 870,-997.5 870,-962.5 666,-962.5"/>
<polygon fill="none" stroke="#000000" points="666,-962.5 666,-997.5 870,-997.5 870,-962.5 666,-962.5"/>
<text text-anchor="start" x="672.8692" y="-975.3" font-family="Arial Bold" font-size="18.00" fill="#000000">last_resorts</text>
<text text-anchor="start" x="765.877" y="-975.3" font-family="Arial" font-size="14.00" fill="#000000"> </text>
<text text-anchor="start" x="769.7676" y="-975.3" font-family="Arial" font-size="14.00" fill="#666666">[BASE TABLE]</text>
<polygon fill="none" stroke="#000000" points="666,-932.5 666,-962.5 870,-962.5 870,-932.5 666,-932.5"/>
<text text-anchor="start" x="673" y="-943.9" font-family="Arial" font-size="14.00" fill="#000000">id </text>
<text text-anchor="start" x="687.7798" y="-943.9" font-family="Arial" font-size="14.00" fill="#666666">[bigint(20)]</text>
<polygon fill="none" stroke="#000000" points="666,-902.5 666,-932.5 870,-932.5 870,-902.5 666,-902.5"/>
<text text-anchor="start" x="673" y="-913.9" font-family="Arial" font-size="14.00" fill="#000000">last_resort_n </text>
<text text-anchor="start" x="757.7952" y="-913.9" font-family="Arial" font-size="14.00" fill="#666666">[int(11)]</text>
<polygon fill="none" stroke="#000000" points="666,-872.5 666,-902.5 870,-902.5 870,-872.5 666,-872.5"/>
<text text-anchor="start" x="673" y="-883.9" font-family="Arial" font-size="14.00" fill="#000000">last_resort </text>
<text text-anchor="start" x="742.23" y="-883.9" font-family="Arial" font-size="14.00" fill="#666666">[text]</text>
<polygon fill="none" stroke="#000000" points="666,-842.5 666,-872.5 870,-872.5 870,-842.5 666,-842.5"/>
<text text-anchor="start" x="673" y="-853.9" font-family="Arial" font-size="14.00" fill="#000000">character_id </text>
<text text-anchor="start" x="753.9046" y="-853.9" font-family="Arial" font-size="14.00" fill="#666666">[bigint(20)]</text>
<polygon fill="none" stroke="#000000" points="666,-812.5 666,-842.5 870,-842.5 870,-812.5 666,-812.5"/>
<text text-anchor="start" x="673" y="-823.9" font-family="Arial" font-size="14.00" fill="#000000">created_at </text>
<text text-anchor="start" x="743.028" y="-823.9" font-family="Arial" font-size="14.00" fill="#666666">[datetime(6)]</text>
<polygon fill="none" stroke="#000000" points="666,-782.5 666,-812.5 870,-812.5 870,-782.5 666,-782.5"/>
<text text-anchor="start" x="673" y="-793.9" font-family="Arial" font-size="14.00" fill="#000000">updated_at </text>
<text text-anchor="start" x="746.9326" y="-793.9" font-family="Arial" font-size="14.00" fill="#666666">[datetime(6)]</text>
</g>
<!-- last_resorts&#45;&gt;characters -->
<g id="edge3" class="edge">
<title>last_resorts:character_id&#45;&gt;characters:id</title>
<path fill="none" stroke="#000000" d="M655.6433,-856.3511C617.7293,-846.9639 642.3366,-782.1594 666,-740 681.0352,-713.2129 709.9648,-730.7871 725,-704 745.9922,-666.5997 767.8889,-607.5 725,-607.5"/>
<polygon fill="#000000" stroke="#000000" points="656.061,-856.3973 665.5038,-861.9726 661.0305,-856.9487 666,-857.5 666,-857.5 666,-857.5 661.0305,-856.9487 666.4962,-853.0274 656.061,-856.3973 656.061,-856.3973"/>
<text text-anchor="start" x="459.719" y="-841.5" font-family="Arial" font-size="10.00" fill="#000000">FOREIGN KEY (character_id) REFERENCES characters (id)</text>
</g>
<!-- secrets -->
<g id="node5" class="node">
<title>secrets</title>
<polygon fill="#efefef" stroke="transparent" points="975,-962.5 975,-997.5 1144,-997.5 1144,-962.5 975,-962.5"/>
<polygon fill="none" stroke="#000000" points="975,-962.5 975,-997.5 1144,-997.5 1144,-962.5 975,-962.5"/>
<text text-anchor="start" x="981.8697" y="-975.3" font-family="Arial Bold" font-size="18.00" fill="#000000">secrets</text>
<text text-anchor="start" x="1039.8765" y="-975.3" font-family="Arial" font-size="14.00" fill="#000000"> </text>
<text text-anchor="start" x="1043.7671" y="-975.3" font-family="Arial" font-size="14.00" fill="#666666">[BASE TABLE]</text>
<polygon fill="none" stroke="#000000" points="975,-932.5 975,-962.5 1144,-962.5 1144,-932.5 975,-932.5"/>
<text text-anchor="start" x="982" y="-943.9" font-family="Arial" font-size="14.00" fill="#000000">id </text>
<text text-anchor="start" x="996.7798" y="-943.9" font-family="Arial" font-size="14.00" fill="#666666">[bigint(20)]</text>
<polygon fill="none" stroke="#000000" points="975,-902.5 975,-932.5 1144,-932.5 1144,-902.5 975,-902.5"/>
<text text-anchor="start" x="982" y="-913.9" font-family="Arial" font-size="14.00" fill="#000000">secret_n </text>
<text text-anchor="start" x="1039.5722" y="-913.9" font-family="Arial" font-size="14.00" fill="#666666">[int(11)]</text>
<polygon fill="none" stroke="#000000" points="975,-872.5 975,-902.5 1144,-902.5 1144,-872.5 975,-872.5"/>
<text text-anchor="start" x="982" y="-883.9" font-family="Arial" font-size="14.00" fill="#000000">secret </text>
<text text-anchor="start" x="1024.007" y="-883.9" font-family="Arial" font-size="14.00" fill="#666666">[text]</text>
<polygon fill="none" stroke="#000000" points="975,-842.5 975,-872.5 1144,-872.5 1144,-842.5 975,-842.5"/>
<text text-anchor="start" x="982" y="-853.9" font-family="Arial" font-size="14.00" fill="#000000">character_id </text>
<text text-anchor="start" x="1062.9046" y="-853.9" font-family="Arial" font-size="14.00" fill="#666666">[bigint(20)]</text>
<polygon fill="none" stroke="#000000" points="975,-812.5 975,-842.5 1144,-842.5 1144,-812.5 975,-812.5"/>
<text text-anchor="start" x="982" y="-823.9" font-family="Arial" font-size="14.00" fill="#000000">created_at </text>
<text text-anchor="start" x="1052.028" y="-823.9" font-family="Arial" font-size="14.00" fill="#666666">[datetime(6)]</text>
<polygon fill="none" stroke="#000000" points="975,-782.5 975,-812.5 1144,-812.5 1144,-782.5 975,-782.5"/>
<text text-anchor="start" x="982" y="-793.9" font-family="Arial" font-size="14.00" fill="#000000">updated_at </text>
<text text-anchor="start" x="1055.9326" y="-793.9" font-family="Arial" font-size="14.00" fill="#666666">[datetime(6)]</text>
</g>
<!-- secrets&#45;&gt;characters -->
<g id="edge4" class="edge">
<title>secrets:character_id&#45;&gt;characters:id</title>
<path fill="none" stroke="#000000" d="M964.8388,-856.555C922.8445,-847.8401 956.5057,-780.8652 922,-740 853.9254,-659.3791 830.5172,-607.5 725,-607.5"/>
<polygon fill="#000000" stroke="#000000" points="965.043,-856.5739 974.5832,-861.9807 970.0215,-857.0369 975,-857.5 975,-857.5 975,-857.5 970.0215,-857.0369 975.4168,-853.0193 965.043,-856.5739 965.043,-856.5739"/>
<text text-anchor="start" x="981.719" y="-867.5" font-family="Arial" font-size="10.00" fill="#000000">FOREIGN KEY (character_id) REFERENCES characters (id)</text>
</g>
</g>
</svg>
