<?xml version="1.0" encoding="UTF-8" standalone="no"?>
<!DOCTYPE svg PUBLIC "-//W3C//DTD SVG 1.1//EN"
 "http://www.w3.org/Graphics/SVG/1.1/DTD/svg11.dtd">
<!-- Generated by graphviz version 2.40.1 (20161225.0304)
 -->
<!-- Title: conditions Pages: 1 -->
<svg width="534pt" height="622pt"
 viewBox="0.00 0.00 534.00 622.00" xmlns="http://www.w3.org/2000/svg" xmlns:xlink="http://www.w3.org/1999/xlink">
<g id="graph0" class="graph" transform="scale(1 1) rotate(0) translate(4 618)">
<title>conditions</title>
<polygon fill="#ffffff" stroke="transparent" points="-4,4 -4,-618 530,-618 530,4 -4,4"/>
<!-- conditions -->
<g id="node1" class="node">
<title>conditions</title>
<polygon fill="#efefef" stroke="transparent" points="50,-532.5 50,-567.5 242,-567.5 242,-532.5 50,-532.5"/>
<polygon fill="none" stroke="#000000" points="50,-532.5 50,-567.5 242,-567.5 242,-532.5 50,-532.5"/>
<text text-anchor="start" x="56.8623" y="-545.3" font-family="Arial Bold" font-size="18.00" fill="#000000">conditions</text>
<text text-anchor="start" x="137.8839" y="-545.3" font-family="Arial" font-size="14.00" fill="#000000"> </text>
<text text-anchor="start" x="141.7745" y="-545.3" font-family="Arial" font-size="14.00" fill="#666666">[BASE TABLE]</text>
<polygon fill="none" stroke="#000000" points="50,-502.5 50,-532.5 242,-532.5 242,-502.5 50,-502.5"/>
<text text-anchor="start" x="57" y="-513.9" font-family="Arial" font-size="14.00" fill="#000000">id </text>
<text text-anchor="start" x="71.7798" y="-513.9" font-family="Arial" font-size="14.00" fill="#666666">[bigint(20)]</text>
<polygon fill="none" stroke="#000000" points="50,-472.5 50,-502.5 242,-502.5 242,-472.5 50,-472.5"/>
<text text-anchor="start" x="57" y="-483.9" font-family="Arial" font-size="14.00" fill="#000000">state_id </text>
<text text-anchor="start" x="109.9088" y="-483.9" font-family="Arial" font-size="14.00" fill="#666666">[int(11)]</text>
<polygon fill="none" stroke="#000000" points="50,-442.5 50,-472.5 242,-472.5 242,-442.5 50,-442.5"/>
<text text-anchor="start" x="57" y="-453.9" font-family="Arial" font-size="14.00" fill="#000000">character_id </text>
<text text-anchor="start" x="137.9046" y="-453.9" font-family="Arial" font-size="14.00" fill="#666666">[bigint(20)]</text>
<polygon fill="none" stroke="#000000" points="50,-412.5 50,-442.5 242,-442.5 242,-412.5 50,-412.5"/>
<text text-anchor="start" x="57" y="-423.9" font-family="Arial" font-size="14.00" fill="#000000">created_at </text>
<text text-anchor="start" x="127.028" y="-423.9" font-family="Arial" font-size="14.00" fill="#666666">[datetime(6)]</text>
<polygon fill="none" stroke="#000000" points="50,-382.5 50,-412.5 242,-412.5 242,-382.5 50,-382.5"/>
<text text-anchor="start" x="57" y="-393.9" font-family="Arial" font-size="14.00" fill="#000000">updated_at </text>
<text text-anchor="start" x="130.9326" y="-393.9" font-family="Arial" font-size="14.00" fill="#666666">[datetime(6)]</text>
<polygon fill="none" stroke="#000000" stroke-width="3" points="48.5,-381.5 48.5,-569.5 243.5,-569.5 243.5,-381.5 48.5,-381.5"/>
</g>
<!-- characters -->
<g id="node2" class="node">
<title>characters</title>
<polygon fill="#efefef" stroke="transparent" points="43,-222.5 43,-257.5 249,-257.5 249,-222.5 43,-222.5"/>
<polygon fill="none" stroke="#000000" points="43,-222.5 43,-257.5 249,-257.5 249,-222.5 43,-222.5"/>
<text text-anchor="start" x="55.3674" y="-235.3" font-family="Arial Bold" font-size="18.00" fill="#000000">characters</text>
<text text-anchor="start" x="139.3788" y="-235.3" font-family="Arial" font-size="14.00" fill="#000000"> </text>
<text text-anchor="start" x="143.2694" y="-235.3" font-family="Arial" font-size="14.00" fill="#666666">[BASE TABLE]</text>
<polygon fill="none" stroke="#000000" points="43,-192.5 43,-222.5 249,-222.5 249,-192.5 43,-192.5"/>
<text text-anchor="start" x="50" y="-203.9" font-family="Arial" font-size="14.00" fill="#000000">id </text>
<text text-anchor="start" x="64.7798" y="-203.9" font-family="Arial" font-size="14.00" fill="#666666">[bigint(20)]</text>
<polygon fill="none" stroke="#000000" points="43,-162.5 43,-192.5 249,-192.5 249,-162.5 43,-162.5"/>
<text text-anchor="start" x="49.9285" y="-173.9" font-family="Arial" font-size="14.00" fill="#000000">character_name </text>
<text text-anchor="start" x="154.9523" y="-173.9" font-family="Arial" font-size="14.00" fill="#666666">[varchar(255)]</text>
<polygon fill="none" stroke="#000000" points="43,-132.5 43,-162.5 249,-162.5 249,-132.5 43,-132.5"/>
<text text-anchor="start" x="50" y="-143.9" font-family="Arial" font-size="14.00" fill="#000000">pc_number </text>
<text text-anchor="start" x="123.9074" y="-143.9" font-family="Arial" font-size="14.00" fill="#666666">[int(11)]</text>
<polygon fill="none" stroke="#000000" points="43,-102.5 43,-132.5 249,-132.5 249,-102.5 43,-102.5"/>
<text text-anchor="start" x="50" y="-113.9" font-family="Arial" font-size="14.00" fill="#000000">room_id </text>
<text text-anchor="start" x="104.4488" y="-113.9" font-family="Arial" font-size="14.00" fill="#666666">[bigint(20)]</text>
<polygon fill="none" stroke="#000000" points="43,-72.5 43,-102.5 249,-102.5 249,-72.5 43,-72.5"/>
<text text-anchor="start" x="50" y="-83.9" font-family="Arial" font-size="14.00" fill="#000000">created_at </text>
<text text-anchor="start" x="120.028" y="-83.9" font-family="Arial" font-size="14.00" fill="#666666">[datetime(6)]</text>
<polygon fill="none" stroke="#000000" points="43,-42.5 43,-72.5 249,-72.5 249,-42.5 43,-42.5"/>
<text text-anchor="start" x="50" y="-53.9" font-family="Arial" font-size="14.00" fill="#000000">updated_at </text>
<text text-anchor="start" x="123.9326" y="-53.9" font-family="Arial" font-size="14.00" fill="#666666">[datetime(6)]</text>
</g>
<!-- conditions&#45;&gt;characters -->
<g id="edge1" class="edge">
<title>conditions:character_id&#45;&gt;characters:id</title>
<path fill="none" stroke="#000000" d="M251.8481,-454.6924C298.2079,-427.2266 301.1037,-207.5 249,-207.5"/>
<polygon fill="#000000" stroke="#000000" points="251.6168,-454.7582 240.7662,-453.1724 246.8084,-456.1291 242,-457.5 242,-457.5 242,-457.5 246.8084,-456.1291 243.2338,-461.8276 251.6168,-454.7582 251.6168,-454.7582"/>
<text text-anchor="start" x="248.719" y="-467.5" font-family="Arial" font-size="10.00" fill="#000000">FOREIGN KEY (character_id) REFERENCES characters (id)</text>
</g>
</g>
</svg>
