<?xml version="1.0" encoding="UTF-8" standalone="no"?>
<!DOCTYPE svg PUBLIC "-//W3C//DTD SVG 1.1//EN"
 "http://www.w3.org/Graphics/SVG/1.1/DTD/svg11.dtd">
<!-- Generated by graphviz version 2.40.1 (20161225.0304)
 -->
<!-- Title: feelings Pages: 1 -->
<svg width="524pt" height="652pt"
 viewBox="0.00 0.00 524.00 652.00" xmlns="http://www.w3.org/2000/svg" xmlns:xlink="http://www.w3.org/1999/xlink">
<g id="graph0" class="graph" transform="scale(1 1) rotate(0) translate(4 648)">
<title>feelings</title>
<polygon fill="#ffffff" stroke="transparent" points="-4,4 -4,-648 520,-648 520,4 -4,4"/>
<!-- feelings -->
<g id="node1" class="node">
<title>feelings</title>
<polygon fill="#efefef" stroke="transparent" points="59,-562.5 59,-597.5 232,-597.5 232,-562.5 59,-562.5"/>
<polygon fill="none" stroke="#000000" points="59,-562.5 59,-597.5 232,-597.5 232,-562.5 59,-562.5"/>
<text text-anchor="start" x="65.8654" y="-575.3" font-family="Arial Bold" font-size="18.00" fill="#000000">feelings</text>
<text text-anchor="start" x="127.8808" y="-575.3" font-family="Arial" font-size="14.00" fill="#000000"> </text>
<text text-anchor="start" x="131.7714" y="-575.3" font-family="Arial" font-size="14.00" fill="#666666">[BASE TABLE]</text>
<polygon fill="none" stroke="#000000" points="59,-532.5 59,-562.5 232,-562.5 232,-532.5 59,-532.5"/>
<text text-anchor="start" x="66" y="-543.9" font-family="Arial" font-size="14.00" fill="#000000">id </text>
<text text-anchor="start" x="80.7798" y="-543.9" font-family="Arial" font-size="14.00" fill="#666666">[bigint(20)]</text>
<polygon fill="none" stroke="#000000" points="59,-502.5 59,-532.5 232,-532.5 232,-502.5 59,-502.5"/>
<text text-anchor="start" x="66" y="-513.9" font-family="Arial" font-size="14.00" fill="#000000">feel_id </text>
<text text-anchor="start" x="111.1248" y="-513.9" font-family="Arial" font-size="14.00" fill="#666666">[int(11)]</text>
<polygon fill="none" stroke="#000000" points="59,-472.5 59,-502.5 232,-502.5 232,-472.5 59,-472.5"/>
<text text-anchor="start" x="66" y="-483.9" font-family="Arial" font-size="14.00" fill="#000000">feeling_to </text>
<text text-anchor="start" x="130.5806" y="-483.9" font-family="Arial" font-size="14.00" fill="#666666">[varchar(255)]</text>
<polygon fill="none" stroke="#000000" points="59,-442.5 59,-472.5 232,-472.5 232,-442.5 59,-442.5"/>
<text text-anchor="start" x="66" y="-453.9" font-family="Arial" font-size="14.00" fill="#000000">character_id </text>
<text text-anchor="start" x="146.9046" y="-453.9" font-family="Arial" font-size="14.00" fill="#666666">[bigint(20)]</text>
<polygon fill="none" stroke="#000000" points="59,-412.5 59,-442.5 232,-442.5 232,-412.5 59,-412.5"/>
<text text-anchor="start" x="66" y="-423.9" font-family="Arial" font-size="14.00" fill="#000000">created_at </text>
<text text-anchor="start" x="136.028" y="-423.9" font-family="Arial" font-size="14.00" fill="#666666">[datetime(6)]</text>
<polygon fill="none" stroke="#000000" points="59,-382.5 59,-412.5 232,-412.5 232,-382.5 59,-382.5"/>
<text text-anchor="start" x="66" y="-393.9" font-family="Arial" font-size="14.00" fill="#000000">updated_at </text>
<text text-anchor="start" x="139.9326" y="-393.9" font-family="Arial" font-size="14.00" fill="#666666">[datetime(6)]</text>
<polygon fill="none" stroke="#000000" stroke-width="3" points="57,-381.5 57,-599.5 233,-599.5 233,-381.5 57,-381.5"/>
</g>
<!-- characters -->
<g id="node2" class="node">
<title>characters</title>
<polygon fill="#efefef" stroke="transparent" points="43,-222.5 43,-257.5 249,-257.5 249,-222.5 43,-222.5"/>
<polygon fill="none" stroke="#000000" points="43,-222.5 43,-257.5 249,-257.5 249,-222.5 43,-222.5"/>
<text text-anchor="start" x="55.3674" y="-235.3" font-family="Arial Bold" font-size="18.00" fill="#000000">characters</text>
<text text-anchor="start" x="139.3788" y="-235.3" font-family="Arial" font-size="14.00" fill="#000000"> </text>
<text text-anchor="start" x="143.2694" y="-235.3" font-family="Arial" font-size="14.00" fill="#666666">[BASE TABLE]</text>
<polygon fill="none" stroke="#000000" points="43,-192.5 43,-222.5 249,-222.5 249,-192.5 43,-192.5"/>
<text text-anchor="start" x="50" y="-203.9" font-family="Arial" font-size="14.00" fill="#000000">id </text>
<text text-anchor="start" x="64.7798" y="-203.9" font-family="Arial" font-size="14.00" fill="#666666">[bigint(20)]</text>
<polygon fill="none" stroke="#000000" points="43,-162.5 43,-192.5 249,-192.5 249,-162.5 43,-162.5"/>
<text text-anchor="start" x="49.9285" y="-173.9" font-family="Arial" font-size="14.00" fill="#000000">character_name </text>
<text text-anchor="start" x="154.9523" y="-173.9" font-family="Arial" font-size="14.00" fill="#666666">[varchar(255)]</text>
<polygon fill="none" stroke="#000000" points="43,-132.5 43,-162.5 249,-162.5 249,-132.5 43,-132.5"/>
<text text-anchor="start" x="50" y="-143.9" font-family="Arial" font-size="14.00" fill="#000000">pc_number </text>
<text text-anchor="start" x="123.9074" y="-143.9" font-family="Arial" font-size="14.00" fill="#666666">[int(11)]</text>
<polygon fill="none" stroke="#000000" points="43,-102.5 43,-132.5 249,-132.5 249,-102.5 43,-102.5"/>
<text text-anchor="start" x="50" y="-113.9" font-family="Arial" font-size="14.00" fill="#000000">room_id </text>
<text text-anchor="start" x="104.4488" y="-113.9" font-family="Arial" font-size="14.00" fill="#666666">[bigint(20)]</text>
<polygon fill="none" stroke="#000000" points="43,-72.5 43,-102.5 249,-102.5 249,-72.5 43,-72.5"/>
<text text-anchor="start" x="50" y="-83.9" font-family="Arial" font-size="14.00" fill="#000000">created_at </text>
<text text-anchor="start" x="120.028" y="-83.9" font-family="Arial" font-size="14.00" fill="#666666">[datetime(6)]</text>
<polygon fill="none" stroke="#000000" points="43,-42.5 43,-72.5 249,-72.5 249,-42.5 43,-42.5"/>
<text text-anchor="start" x="50" y="-53.9" font-family="Arial" font-size="14.00" fill="#000000">updated_at </text>
<text text-anchor="start" x="123.9326" y="-53.9" font-family="Arial" font-size="14.00" fill="#666666">[datetime(6)]</text>
</g>
<!-- feelings&#45;&gt;characters -->
<g id="edge1" class="edge">
<title>feelings:character_id&#45;&gt;characters:id</title>
<path fill="none" stroke="#000000" d="M241.9787,-456.4266C282.8327,-446.844 263.8092,-375.44 232,-337 177.4847,-271.1207 97.5153,-366.8793 43,-301 16.5071,-268.9845 1.4444,-207.5 43,-207.5"/>
<polygon fill="#000000" stroke="#000000" points="241.9426,-456.4304 231.5187,-453.0258 236.9713,-456.9652 232,-457.5 232,-457.5 232,-457.5 236.9713,-456.9652 232.4813,-461.9742 241.9426,-456.4304 241.9426,-456.4304"/>
<text text-anchor="start" x="238.719" y="-467.5" font-family="Arial" font-size="10.00" fill="#000000">FOREIGN KEY (character_id) REFERENCES characters (id)</text>
</g>
</g>
</svg>
