<?xml version="1.0" encoding="UTF-8" standalone="no"?>
<!DOCTYPE svg PUBLIC "-//W3C//DTD SVG 1.1//EN"
 "http://www.w3.org/Graphics/SVG/1.1/DTD/svg11.dtd">
<!-- Generated by graphviz version 2.40.1 (20161225.0304)
 -->
<!-- Title: last_resorts Pages: 1 -->
<svg width="599pt" height="989pt"
 viewBox="0.00 0.00 599.00 989.00" xmlns="http://www.w3.org/2000/svg" xmlns:xlink="http://www.w3.org/1999/xlink">
<g id="graph0" class="graph" transform="scale(1 1) rotate(0) translate(4 985)">
<title>last_resorts</title>
<polygon fill="#ffffff" stroke="transparent" points="-4,4 -4,-985 595,-985 595,4 -4,4"/>
<!-- last_resorts -->
<g id="node1" class="node">
<title>last_resorts</title>
<polygon fill="#efefef" stroke="transparent" points="68,-562.5 68,-597.5 272,-597.5 272,-562.5 68,-562.5"/>
<polygon fill="none" stroke="#000000" points="68,-562.5 68,-597.5 272,-597.5 272,-562.5 68,-562.5"/>
<text text-anchor="start" x="74.8692" y="-575.3" font-family="Arial Bold" font-size="18.00" fill="#000000">last_resorts</text>
<text text-anchor="start" x="167.877" y="-575.3" font-family="Arial" font-size="14.00" fill="#000000"> </text>
<text text-anchor="start" x="171.7676" y="-575.3" font-family="Arial" font-size="14.00" fill="#666666">[BASE TABLE]</text>
<polygon fill="none" stroke="#000000" points="68,-532.5 68,-562.5 272,-562.5 272,-532.5 68,-532.5"/>
<text text-anchor="start" x="75" y="-543.9" font-family="Arial" font-size="14.00" fill="#000000">id </text>
<text text-anchor="start" x="89.7798" y="-543.9" font-family="Arial" font-size="14.00" fill="#666666">[bigint(20)]</text>
<polygon fill="none" stroke="#000000" points="68,-502.5 68,-532.5 272,-532.5 272,-502.5 68,-502.5"/>
<text text-anchor="start" x="75" y="-513.9" font-family="Arial" font-size="14.00" fill="#000000">last_resort_n </text>
<text text-anchor="start" x="159.7952" y="-513.9" font-family="Arial" font-size="14.00" fill="#666666">[int(11)]</text>
<polygon fill="none" stroke="#000000" points="68,-472.5 68,-502.5 272,-502.5 272,-472.5 68,-472.5"/>
<text text-anchor="start" x="75" y="-483.9" font-family="Arial" font-size="14.00" fill="#000000">last_resort </text>
<text text-anchor="start" x="144.23" y="-483.9" font-family="Arial" font-size="14.00" fill="#666666">[text]</text>
<polygon fill="none" stroke="#000000" points="68,-442.5 68,-472.5 272,-472.5 272,-442.5 68,-442.5"/>
<text text-anchor="start" x="75" y="-453.9" font-family="Arial" font-size="14.00" fill="#000000">character_id </text>
<text text-anchor="start" x="155.9046" y="-453.9" font-family="Arial" font-size="14.00" fill="#666666">[bigint(20)]</text>
<polygon fill="none" stroke="#000000" points="68,-412.5 68,-442.5 272,-442.5 272,-412.5 68,-412.5"/>
<text text-anchor="start" x="75" y="-423.9" font-family="Arial" font-size="14.00" fill="#000000">created_at </text>
<text text-anchor="start" x="145.028" y="-423.9" font-family="Arial" font-size="14.00" fill="#666666">[datetime(6)]</text>
<polygon fill="none" stroke="#000000" points="68,-382.5 68,-412.5 272,-412.5 272,-382.5 68,-382.5"/>
<text text-anchor="start" x="75" y="-393.9" font-family="Arial" font-size="14.00" fill="#000000">updated_at </text>
<text text-anchor="start" x="148.9326" y="-393.9" font-family="Arial" font-size="14.00" fill="#666666">[datetime(6)]</text>
<polygon fill="none" stroke="#000000" stroke-width="3" points="66.5,-381.5 66.5,-599.5 273.5,-599.5 273.5,-381.5 66.5,-381.5"/>
</g>
<!-- characters -->
<g id="node3" class="node">
<title>characters</title>
<polygon fill="#efefef" stroke="transparent" points="67,-222.5 67,-257.5 273,-257.5 273,-222.5 67,-222.5"/>
<polygon fill="none" stroke="#000000" points="67,-222.5 67,-257.5 273,-257.5 273,-222.5 67,-222.5"/>
<text text-anchor="start" x="79.3674" y="-235.3" font-family="Arial Bold" font-size="18.00" fill="#000000">characters</text>
<text text-anchor="start" x="163.3788" y="-235.3" font-family="Arial" font-size="14.00" fill="#000000"> </text>
<text text-anchor="start" x="167.2694" y="-235.3" font-family="Arial" font-size="14.00" fill="#666666">[BASE TABLE]</text>
<polygon fill="none" stroke="#000000" points="67,-192.5 67,-222.5 273,-222.5 273,-192.5 67,-192.5"/>
<text text-anchor="start" x="74" y="-203.9" font-family="Arial" font-size="14.00" fill="#000000">id </text>
<text text-anchor="start" x="88.7798" y="-203.9" font-family="Arial" font-size="14.00" fill="#666666">[bigint(20)]</text>
<polygon fill="none" stroke="#000000" points="67,-162.5 67,-192.5 273,-192.5 273,-162.5 67,-162.5"/>
<text text-anchor="start" x="73.9285" y="-173.9" font-family="Arial" font-size="14.00" fill="#000000">character_name </text>
<text text-anchor="start" x="178.9523" y="-173.9" font-family="Arial" font-size="14.00" fill="#666666">[varchar(255)]</text>
<polygon fill="none" stroke="#000000" points="67,-132.5 67,-162.5 273,-162.5 273,-132.5 67,-132.5"/>
<text text-anchor="start" x="74" y="-143.9" font-family="Arial" font-size="14.00" fill="#000000">pc_number </text>
<text text-anchor="start" x="147.9074" y="-143.9" font-family="Arial" font-size="14.00" fill="#666666">[int(11)]</text>
<polygon fill="none" stroke="#000000" points="67,-102.5 67,-132.5 273,-132.5 273,-102.5 67,-102.5"/>
<text text-anchor="start" x="74" y="-113.9" font-family="Arial" font-size="14.00" fill="#000000">room_id </text>
<text text-anchor="start" x="128.4488" y="-113.9" font-family="Arial" font-size="14.00" fill="#666666">[bigint(20)]</text>
<polygon fill="none" stroke="#000000" points="67,-72.5 67,-102.5 273,-102.5 273,-72.5 67,-72.5"/>
<text text-anchor="start" x="74" y="-83.9" font-family="Arial" font-size="14.00" fill="#000000">created_at </text>
<text text-anchor="start" x="144.028" y="-83.9" font-family="Arial" font-size="14.00" fill="#666666">[datetime(6)]</text>
<polygon fill="none" stroke="#000000" points="67,-42.5 67,-72.5 273,-72.5 273,-42.5 67,-42.5"/>
<text text-anchor="start" x="74" y="-53.9" font-family="Arial" font-size="14.00" fill="#000000">updated_at </text>
<text text-anchor="start" x="147.9326" y="-53.9" font-family="Arial" font-size="14.00" fill="#666666">[datetime(6)]</text>
</g>
<!-- last_resorts&#45;&gt;characters -->
<g id="edge2" class="edge">
<title>last_resorts:character_id&#45;&gt;characters:id</title>
<path fill="none" stroke="#000000" d="M282.0941,-456.7828C383.065,-442.1191 380.6397,-207.5 273,-207.5"/>
<polygon fill="#000000" stroke="#000000" points="281.9749,-456.7912 271.681,-453.0113 276.9874,-457.1456 272,-457.5 272,-457.5 272,-457.5 276.9874,-457.1456 272.319,-461.9887 281.9749,-456.7912 281.9749,-456.7912"/>
<text text-anchor="start" x="278.719" y="-467.5" font-family="Arial" font-size="10.00" fill="#000000">FOREIGN KEY (character_id) REFERENCES characters (id)</text>
</g>
<!-- open_last_resorts -->
<g id="node2" class="node">
<title>open_last_resorts</title>
<polygon fill="#efefef" stroke="transparent" points="43,-902.5 43,-937.5 297,-937.5 297,-902.5 43,-902.5"/>
<polygon fill="none" stroke="#000000" points="43,-902.5 43,-937.5 297,-937.5 297,-902.5 43,-902.5"/>
<text text-anchor="start" x="49.8537" y="-915.3" font-family="Arial Bold" font-size="18.00" fill="#000000">open_last_resorts</text>
<text text-anchor="start" x="192.8925" y="-915.3" font-family="Arial" font-size="14.00" fill="#000000"> </text>
<text text-anchor="start" x="196.7831" y="-915.3" font-family="Arial" font-size="14.00" fill="#666666">[BASE TABLE]</text>
<polygon fill="none" stroke="#000000" points="43,-872.5 43,-902.5 297,-902.5 297,-872.5 43,-872.5"/>
<text text-anchor="start" x="50" y="-883.9" font-family="Arial" font-size="14.00" fill="#000000">id </text>
<text text-anchor="start" x="64.7798" y="-883.9" font-family="Arial" font-size="14.00" fill="#666666">[bigint(20)]</text>
<polygon fill="none" stroke="#000000" points="43,-842.5 43,-872.5 297,-872.5 297,-842.5 43,-842.5"/>
<text text-anchor="start" x="50" y="-853.9" font-family="Arial" font-size="14.00" fill="#000000">lr_unveil_to </text>
<text text-anchor="start" x="125.4572" y="-853.9" font-family="Arial" font-size="14.00" fill="#666666">[int(11)]</text>
<polygon fill="none" stroke="#000000" points="43,-812.5 43,-842.5 297,-842.5 297,-812.5 43,-812.5"/>
<text text-anchor="start" x="50" y="-823.9" font-family="Arial" font-size="14.00" fill="#000000">unveiled_id </text>
<text text-anchor="start" x="124.6886" y="-823.9" font-family="Arial" font-size="14.00" fill="#666666">[int(11)]</text>
<polygon fill="none" stroke="#000000" points="43,-782.5 43,-812.5 297,-812.5 297,-782.5 43,-782.5"/>
<text text-anchor="start" x="50" y="-793.9" font-family="Arial" font-size="14.00" fill="#000000">last_resort_id </text>
<text text-anchor="start" x="137.9018" y="-793.9" font-family="Arial" font-size="14.00" fill="#666666">[bigint(20)]</text>
<polygon fill="none" stroke="#000000" points="43,-752.5 43,-782.5 297,-782.5 297,-752.5 43,-752.5"/>
<text text-anchor="start" x="50" y="-763.9" font-family="Arial" font-size="14.00" fill="#000000">created_at </text>
<text text-anchor="start" x="120.028" y="-763.9" font-family="Arial" font-size="14.00" fill="#666666">[datetime(6)]</text>
<polygon fill="none" stroke="#000000" points="43,-722.5 43,-752.5 297,-752.5 297,-722.5 43,-722.5"/>
<text text-anchor="start" x="50" y="-733.9" font-family="Arial" font-size="14.00" fill="#000000">updated_at </text>
<text text-anchor="start" x="123.9326" y="-733.9" font-family="Arial" font-size="14.00" fill="#666666">[datetime(6)]</text>
</g>
<!-- open_last_resorts&#45;&gt;last_resorts -->
<g id="edge1" class="edge">
<title>open_last_resorts:last_resort_id&#45;&gt;last_resorts:id</title>
<path fill="none" stroke="#000000" d="M307.0698,-796.7828C407.0182,-782.1191 380.1757,-547.5 272,-547.5"/>
<polygon fill="#000000" stroke="#000000" points="306.9747,-796.7895 296.6803,-793.0114 301.9874,-797.1448 297,-797.5 297,-797.5 297,-797.5 301.9874,-797.1448 297.3197,-801.9886 306.9747,-796.7895 306.9747,-796.7895"/>
<text text-anchor="start" x="303.721" y="-807.5" font-family="Arial" font-size="10.00" fill="#000000">FOREIGN KEY (last_resort_id) REFERENCES last_resorts (id)</text>
</g>
</g>
</svg>
