<?xml version="1.0" encoding="UTF-8" standalone="no"?>
<!DOCTYPE svg PUBLIC "-//W3C//DTD SVG 1.1//EN"
 "http://www.w3.org/Graphics/SVG/1.1/DTD/svg11.dtd">
<!-- Generated by graphviz version 2.40.1 (20161225.0304)
 -->
<!-- Title: open_secrets Pages: 1 -->
<svg width="528pt" height="652pt"
 viewBox="0.00 0.00 527.50 652.00" xmlns="http://www.w3.org/2000/svg" xmlns:xlink="http://www.w3.org/1999/xlink">
<g id="graph0" class="graph" transform="scale(1 1) rotate(0) translate(4 648)">
<title>open_secrets</title>
<polygon fill="#ffffff" stroke="transparent" points="-4,4 -4,-648 523.5,-648 523.5,4 -4,4"/>
<!-- open_secrets -->
<g id="node1" class="node">
<title>open_secrets</title>
<polygon fill="#efefef" stroke="transparent" points="255,-562.5 255,-597.5 474,-597.5 474,-562.5 255,-562.5"/>
<polygon fill="none" stroke="#000000" points="255,-562.5 255,-597.5 474,-597.5 474,-562.5 255,-562.5"/>
<text text-anchor="start" x="261.8542" y="-575.3" font-family="Arial Bold" font-size="18.00" fill="#000000">open_secrets</text>
<text text-anchor="start" x="369.892" y="-575.3" font-family="Arial" font-size="14.00" fill="#000000"> </text>
<text text-anchor="start" x="373.7826" y="-575.3" font-family="Arial" font-size="14.00" fill="#666666">[BASE TABLE]</text>
<polygon fill="none" stroke="#000000" points="255,-532.5 255,-562.5 474,-562.5 474,-532.5 255,-532.5"/>
<text text-anchor="start" x="262" y="-543.9" font-family="Arial" font-size="14.00" fill="#000000">id </text>
<text text-anchor="start" x="276.7798" y="-543.9" font-family="Arial" font-size="14.00" fill="#666666">[bigint(20)]</text>
<polygon fill="none" stroke="#000000" points="255,-502.5 255,-532.5 474,-532.5 474,-502.5 255,-502.5"/>
<text text-anchor="start" x="262" y="-513.9" font-family="Arial" font-size="14.00" fill="#000000">secret_unveil_to </text>
<text text-anchor="start" x="367.8064" y="-513.9" font-family="Arial" font-size="14.00" fill="#666666">[int(11)]</text>
<polygon fill="none" stroke="#000000" points="255,-472.5 255,-502.5 474,-502.5 474,-472.5 255,-472.5"/>
<text text-anchor="start" x="262" y="-483.9" font-family="Arial" font-size="14.00" fill="#000000">unveiled_id </text>
<text text-anchor="start" x="336.6886" y="-483.9" font-family="Arial" font-size="14.00" fill="#666666">[int(11)]</text>
<polygon fill="none" stroke="#000000" points="255,-442.5 255,-472.5 474,-472.5 474,-442.5 255,-442.5"/>
<text text-anchor="start" x="262" y="-453.9" font-family="Arial" font-size="14.00" fill="#000000">secret_id </text>
<text text-anchor="start" x="322.6788" y="-453.9" font-family="Arial" font-size="14.00" fill="#666666">[bigint(20)]</text>
<polygon fill="none" stroke="#000000" points="255,-412.5 255,-442.5 474,-442.5 474,-412.5 255,-412.5"/>
<text text-anchor="start" x="262" y="-423.9" font-family="Arial" font-size="14.00" fill="#000000">created_at </text>
<text text-anchor="start" x="332.028" y="-423.9" font-family="Arial" font-size="14.00" fill="#666666">[datetime(6)]</text>
<polygon fill="none" stroke="#000000" points="255,-382.5 255,-412.5 474,-412.5 474,-382.5 255,-382.5"/>
<text text-anchor="start" x="262" y="-393.9" font-family="Arial" font-size="14.00" fill="#000000">updated_at </text>
<text text-anchor="start" x="335.9326" y="-393.9" font-family="Arial" font-size="14.00" fill="#666666">[datetime(6)]</text>
<polygon fill="none" stroke="#000000" stroke-width="3" points="253,-381.5 253,-599.5 475,-599.5 475,-381.5 253,-381.5"/>
</g>
<!-- secrets -->
<g id="node2" class="node">
<title>secrets</title>
<polygon fill="#efefef" stroke="transparent" points="280,-222.5 280,-257.5 449,-257.5 449,-222.5 280,-222.5"/>
<polygon fill="none" stroke="#000000" points="280,-222.5 280,-257.5 449,-257.5 449,-222.5 280,-222.5"/>
<text text-anchor="start" x="286.8697" y="-235.3" font-family="Arial Bold" font-size="18.00" fill="#000000">secrets</text>
<text text-anchor="start" x="344.8765" y="-235.3" font-family="Arial" font-size="14.00" fill="#000000"> </text>
<text text-anchor="start" x="348.7671" y="-235.3" font-family="Arial" font-size="14.00" fill="#666666">[BASE TABLE]</text>
<polygon fill="none" stroke="#000000" points="280,-192.5 280,-222.5 449,-222.5 449,-192.5 280,-192.5"/>
<text text-anchor="start" x="287" y="-203.9" font-family="Arial" font-size="14.00" fill="#000000">id </text>
<text text-anchor="start" x="301.7798" y="-203.9" font-family="Arial" font-size="14.00" fill="#666666">[bigint(20)]</text>
<polygon fill="none" stroke="#000000" points="280,-162.5 280,-192.5 449,-192.5 449,-162.5 280,-162.5"/>
<text text-anchor="start" x="287" y="-173.9" font-family="Arial" font-size="14.00" fill="#000000">secret_n </text>
<text text-anchor="start" x="344.5722" y="-173.9" font-family="Arial" font-size="14.00" fill="#666666">[int(11)]</text>
<polygon fill="none" stroke="#000000" points="280,-132.5 280,-162.5 449,-162.5 449,-132.5 280,-132.5"/>
<text text-anchor="start" x="287" y="-143.9" font-family="Arial" font-size="14.00" fill="#000000">secret </text>
<text text-anchor="start" x="329.007" y="-143.9" font-family="Arial" font-size="14.00" fill="#666666">[text]</text>
<polygon fill="none" stroke="#000000" points="280,-102.5 280,-132.5 449,-132.5 449,-102.5 280,-102.5"/>
<text text-anchor="start" x="287" y="-113.9" font-family="Arial" font-size="14.00" fill="#000000">character_id </text>
<text text-anchor="start" x="367.9046" y="-113.9" font-family="Arial" font-size="14.00" fill="#666666">[bigint(20)]</text>
<polygon fill="none" stroke="#000000" points="280,-72.5 280,-102.5 449,-102.5 449,-72.5 280,-72.5"/>
<text text-anchor="start" x="287" y="-83.9" font-family="Arial" font-size="14.00" fill="#000000">created_at </text>
<text text-anchor="start" x="357.028" y="-83.9" font-family="Arial" font-size="14.00" fill="#666666">[datetime(6)]</text>
<polygon fill="none" stroke="#000000" points="280,-42.5 280,-72.5 449,-72.5 449,-42.5 280,-42.5"/>
<text text-anchor="start" x="287" y="-53.9" font-family="Arial" font-size="14.00" fill="#000000">updated_at </text>
<text text-anchor="start" x="360.9326" y="-53.9" font-family="Arial" font-size="14.00" fill="#666666">[datetime(6)]</text>
</g>
<!-- open_secrets&#45;&gt;secrets -->
<g id="edge1" class="edge">
<title>open_secrets:secret_id&#45;&gt;secrets:id</title>
<path fill="none" stroke="#000000" d="M244.9302,-456.7828C144.9818,-442.1191 171.8243,-207.5 280,-207.5"/>
<polygon fill="#000000" stroke="#000000" points="245.0253,-456.7895 254.6803,-461.9886 250.0126,-457.1448 255,-457.5 255,-457.5 255,-457.5 250.0126,-457.1448 255.3197,-453.0114 245.0253,-456.7895 245.0253,-456.7895"/>
<text text-anchor="start" x="7.166" y="-467.5" font-family="Arial" font-size="10.00" fill="#000000">FOREIGN KEY (secret_id) REFERENCES secrets (id)</text>
</g>
</g>
</svg>
