<?xml version="1.0" encoding="UTF-8" standalone="no"?>
<!DOCTYPE svg PUBLIC "-//W3C//DTD SVG 1.1//EN"
 "http://www.w3.org/Graphics/SVG/1.1/DTD/svg11.dtd">
<!-- Generated by graphviz version 2.40.1 (20161225.0304)
 -->
<!-- Title: open_last_resorts Pages: 1 -->
<svg width="602pt" height="652pt"
 viewBox="0.00 0.00 602.00 652.00" xmlns="http://www.w3.org/2000/svg" xmlns:xlink="http://www.w3.org/1999/xlink">
<g id="graph0" class="graph" transform="scale(1 1) rotate(0) translate(4 648)">
<title>open_last_resorts</title>
<polygon fill="#ffffff" stroke="transparent" points="-4,4 -4,-648 598,-648 598,4 -4,4"/>
<!-- open_last_resorts -->
<g id="node1" class="node">
<title>open_last_resorts</title>
<polygon fill="#efefef" stroke="transparent" points="46,-562.5 46,-597.5 300,-597.5 300,-562.5 46,-562.5"/>
<polygon fill="none" stroke="#000000" points="46,-562.5 46,-597.5 300,-597.5 300,-562.5 46,-562.5"/>
<text text-anchor="start" x="52.8537" y="-575.3" font-family="Arial Bold" font-size="18.00" fill="#000000">open_last_resorts</text>
<text text-anchor="start" x="195.8925" y="-575.3" font-family="Arial" font-size="14.00" fill="#000000"> </text>
<text text-anchor="start" x="199.7831" y="-575.3" font-family="Arial" font-size="14.00" fill="#666666">[BASE TABLE]</text>
<polygon fill="none" stroke="#000000" points="46,-532.5 46,-562.5 300,-562.5 300,-532.5 46,-532.5"/>
<text text-anchor="start" x="53" y="-543.9" font-family="Arial" font-size="14.00" fill="#000000">id </text>
<text text-anchor="start" x="67.7798" y="-543.9" font-family="Arial" font-size="14.00" fill="#666666">[bigint(20)]</text>
<polygon fill="none" stroke="#000000" points="46,-502.5 46,-532.5 300,-532.5 300,-502.5 46,-502.5"/>
<text text-anchor="start" x="53" y="-513.9" font-family="Arial" font-size="14.00" fill="#000000">lr_unveil_to </text>
<text text-anchor="start" x="128.4572" y="-513.9" font-family="Arial" font-size="14.00" fill="#666666">[int(11)]</text>
<polygon fill="none" stroke="#000000" points="46,-472.5 46,-502.5 300,-502.5 300,-472.5 46,-472.5"/>
<text text-anchor="start" x="53" y="-483.9" font-family="Arial" font-size="14.00" fill="#000000">unveiled_id </text>
<text text-anchor="start" x="127.6886" y="-483.9" font-family="Arial" font-size="14.00" fill="#666666">[int(11)]</text>
<polygon fill="none" stroke="#000000" points="46,-442.5 46,-472.5 300,-472.5 300,-442.5 46,-442.5"/>
<text text-anchor="start" x="53" y="-453.9" font-family="Arial" font-size="14.00" fill="#000000">last_resort_id </text>
<text text-anchor="start" x="140.9018" y="-453.9" font-family="Arial" font-size="14.00" fill="#666666">[bigint(20)]</text>
<polygon fill="none" stroke="#000000" points="46,-412.5 46,-442.5 300,-442.5 300,-412.5 46,-412.5"/>
<text text-anchor="start" x="53" y="-423.9" font-family="Arial" font-size="14.00" fill="#000000">created_at </text>
<text text-anchor="start" x="123.028" y="-423.9" font-family="Arial" font-size="14.00" fill="#666666">[datetime(6)]</text>
<polygon fill="none" stroke="#000000" points="46,-382.5 46,-412.5 300,-412.5 300,-382.5 46,-382.5"/>
<text text-anchor="start" x="53" y="-393.9" font-family="Arial" font-size="14.00" fill="#000000">updated_at </text>
<text text-anchor="start" x="126.9326" y="-393.9" font-family="Arial" font-size="14.00" fill="#666666">[datetime(6)]</text>
<polygon fill="none" stroke="#000000" stroke-width="3" points="44.5,-381.5 44.5,-599.5 301.5,-599.5 301.5,-381.5 44.5,-381.5"/>
</g>
<!-- last_resorts -->
<g id="node2" class="node">
<title>last_resorts</title>
<polygon fill="#efefef" stroke="transparent" points="71,-222.5 71,-257.5 275,-257.5 275,-222.5 71,-222.5"/>
<polygon fill="none" stroke="#000000" points="71,-222.5 71,-257.5 275,-257.5 275,-222.5 71,-222.5"/>
<text text-anchor="start" x="77.8692" y="-235.3" font-family="Arial Bold" font-size="18.00" fill="#000000">last_resorts</text>
<text text-anchor="start" x="170.877" y="-235.3" font-family="Arial" font-size="14.00" fill="#000000"> </text>
<text text-anchor="start" x="174.7676" y="-235.3" font-family="Arial" font-size="14.00" fill="#666666">[BASE TABLE]</text>
<polygon fill="none" stroke="#000000" points="71,-192.5 71,-222.5 275,-222.5 275,-192.5 71,-192.5"/>
<text text-anchor="start" x="78" y="-203.9" font-family="Arial" font-size="14.00" fill="#000000">id </text>
<text text-anchor="start" x="92.7798" y="-203.9" font-family="Arial" font-size="14.00" fill="#666666">[bigint(20)]</text>
<polygon fill="none" stroke="#000000" points="71,-162.5 71,-192.5 275,-192.5 275,-162.5 71,-162.5"/>
<text text-anchor="start" x="78" y="-173.9" font-family="Arial" font-size="14.00" fill="#000000">last_resort_n </text>
<text text-anchor="start" x="162.7952" y="-173.9" font-family="Arial" font-size="14.00" fill="#666666">[int(11)]</text>
<polygon fill="none" stroke="#000000" points="71,-132.5 71,-162.5 275,-162.5 275,-132.5 71,-132.5"/>
<text text-anchor="start" x="78" y="-143.9" font-family="Arial" font-size="14.00" fill="#000000">last_resort </text>
<text text-anchor="start" x="147.23" y="-143.9" font-family="Arial" font-size="14.00" fill="#666666">[text]</text>
<polygon fill="none" stroke="#000000" points="71,-102.5 71,-132.5 275,-132.5 275,-102.5 71,-102.5"/>
<text text-anchor="start" x="78" y="-113.9" font-family="Arial" font-size="14.00" fill="#000000">character_id </text>
<text text-anchor="start" x="158.9046" y="-113.9" font-family="Arial" font-size="14.00" fill="#666666">[bigint(20)]</text>
<polygon fill="none" stroke="#000000" points="71,-72.5 71,-102.5 275,-102.5 275,-72.5 71,-72.5"/>
<text text-anchor="start" x="78" y="-83.9" font-family="Arial" font-size="14.00" fill="#000000">created_at </text>
<text text-anchor="start" x="148.028" y="-83.9" font-family="Arial" font-size="14.00" fill="#666666">[datetime(6)]</text>
<polygon fill="none" stroke="#000000" points="71,-42.5 71,-72.5 275,-72.5 275,-42.5 71,-42.5"/>
<text text-anchor="start" x="78" y="-53.9" font-family="Arial" font-size="14.00" fill="#000000">updated_at </text>
<text text-anchor="start" x="151.9326" y="-53.9" font-family="Arial" font-size="14.00" fill="#666666">[datetime(6)]</text>
</g>
<!-- open_last_resorts&#45;&gt;last_resorts -->
<g id="edge1" class="edge">
<title>open_last_resorts:last_resort_id&#45;&gt;last_resorts:id</title>
<path fill="none" stroke="#000000" d="M310.0698,-456.7828C410.0182,-442.1191 383.1757,-207.5 275,-207.5"/>
<polygon fill="#000000" stroke="#000000" points="309.9747,-456.7895 299.6803,-453.0114 304.9874,-457.1448 300,-457.5 300,-457.5 300,-457.5 304.9874,-457.1448 300.3197,-461.9886 309.9747,-456.7895 309.9747,-456.7895"/>
<text text-anchor="start" x="306.721" y="-467.5" font-family="Arial" font-size="10.00" fill="#000000">FOREIGN KEY (last_resort_id) REFERENCES last_resorts (id)</text>
</g>
</g>
</svg>
