<?xml version="1.0" encoding="UTF-8" standalone="no"?>
<!DOCTYPE svg PUBLIC "-//W3C//DTD SVG 1.1//EN"
 "http://www.w3.org/Graphics/SVG/1.1/DTD/svg11.dtd">
<!-- Generated by graphviz version 2.40.1 (20161225.0304)
 -->
<!-- Title: roles Pages: 1 -->
<svg width="669pt" height="892pt"
 viewBox="0.00 0.00 668.50 892.00" xmlns="http://www.w3.org/2000/svg" xmlns:xlink="http://www.w3.org/1999/xlink">
<g id="graph0" class="graph" transform="scale(1 1) rotate(0) translate(4 888)">
<title>roles</title>
<polygon fill="#ffffff" stroke="transparent" points="-4,4 -4,-888 664.5,-888 664.5,4 -4,4"/>
<!-- roles -->
<g id="node1" class="node">
<title>roles</title>
<polygon fill="#efefef" stroke="transparent" points="248.5,-802.5 248.5,-837.5 414.5,-837.5 414.5,-802.5 248.5,-802.5"/>
<polygon fill="none" stroke="#000000" points="248.5,-802.5 248.5,-837.5 414.5,-837.5 414.5,-802.5 248.5,-802.5"/>
<text text-anchor="start" x="263.3737" y="-815.3" font-family="Arial Bold" font-size="18.00" fill="#000000">roles</text>
<text text-anchor="start" x="302.3725" y="-815.3" font-family="Arial" font-size="14.00" fill="#000000"> </text>
<text text-anchor="start" x="306.2631" y="-815.3" font-family="Arial" font-size="14.00" fill="#666666">[BASE TABLE]</text>
<polygon fill="none" stroke="#000000" points="248.5,-772.5 248.5,-802.5 414.5,-802.5 414.5,-772.5 248.5,-772.5"/>
<text text-anchor="start" x="255.5" y="-783.9" font-family="Arial" font-size="14.00" fill="#000000">id </text>
<text text-anchor="start" x="270.2798" y="-783.9" font-family="Arial" font-size="14.00" fill="#666666">[bigint(20)]</text>
<polygon fill="none" stroke="#000000" points="248.5,-742.5 248.5,-772.5 414.5,-772.5 414.5,-742.5 248.5,-742.5"/>
<text text-anchor="start" x="255.5" y="-753.9" font-family="Arial" font-size="14.00" fill="#000000">role </text>
<text text-anchor="start" x="282.723" y="-753.9" font-family="Arial" font-size="14.00" fill="#666666">[int(11)]</text>
<polygon fill="none" stroke="#000000" points="248.5,-712.5 248.5,-742.5 414.5,-742.5 414.5,-712.5 248.5,-712.5"/>
<text text-anchor="start" x="255.5" y="-723.9" font-family="Arial" font-size="14.00" fill="#000000">user_id </text>
<text text-anchor="start" x="305.2882" y="-723.9" font-family="Arial" font-size="14.00" fill="#666666">[bigint(20)]</text>
<polygon fill="none" stroke="#000000" points="248.5,-682.5 248.5,-712.5 414.5,-712.5 414.5,-682.5 248.5,-682.5"/>
<text text-anchor="start" x="255.5" y="-693.9" font-family="Arial" font-size="14.00" fill="#000000">room_id </text>
<text text-anchor="start" x="309.9488" y="-693.9" font-family="Arial" font-size="14.00" fill="#666666">[bigint(20)]</text>
<polygon fill="none" stroke="#000000" points="248.5,-652.5 248.5,-682.5 414.5,-682.5 414.5,-652.5 248.5,-652.5"/>
<text text-anchor="start" x="255.5" y="-663.9" font-family="Arial" font-size="14.00" fill="#000000">created_at </text>
<text text-anchor="start" x="325.528" y="-663.9" font-family="Arial" font-size="14.00" fill="#666666">[datetime(6)]</text>
<polygon fill="none" stroke="#000000" points="248.5,-622.5 248.5,-652.5 414.5,-652.5 414.5,-622.5 248.5,-622.5"/>
<text text-anchor="start" x="255.2518" y="-633.9" font-family="Arial" font-size="14.00" fill="#000000">updated_at </text>
<text text-anchor="start" x="329.1844" y="-633.9" font-family="Arial" font-size="14.00" fill="#666666">[datetime(6)]</text>
<polygon fill="none" stroke="#000000" stroke-width="3" points="247,-621.5 247,-839.5 416,-839.5 416,-621.5 247,-621.5"/>
</g>
<!-- users -->
<g id="node2" class="node">
<title>users</title>
<polygon fill="#efefef" stroke="transparent" points="43.5,-462.5 43.5,-497.5 288.5,-497.5 288.5,-462.5 43.5,-462.5"/>
<polygon fill="none" stroke="#000000" points="43.5,-462.5 43.5,-497.5 288.5,-497.5 288.5,-462.5 43.5,-462.5"/>
<text text-anchor="start" x="95.3708" y="-475.3" font-family="Arial Bold" font-size="18.00" fill="#000000">users</text>
<text text-anchor="start" x="139.3754" y="-475.3" font-family="Arial" font-size="14.00" fill="#000000"> </text>
<text text-anchor="start" x="143.266" y="-475.3" font-family="Arial" font-size="14.00" fill="#666666">[BASE TABLE]</text>
<polygon fill="none" stroke="#000000" points="43.5,-432.5 43.5,-462.5 288.5,-462.5 288.5,-432.5 43.5,-432.5"/>
<text text-anchor="start" x="50.5" y="-443.9" font-family="Arial" font-size="14.00" fill="#000000">id </text>
<text text-anchor="start" x="65.2798" y="-443.9" font-family="Arial" font-size="14.00" fill="#666666">[bigint(20)]</text>
<polygon fill="none" stroke="#000000" points="43.5,-402.5 43.5,-432.5 288.5,-432.5 288.5,-402.5 43.5,-402.5"/>
<text text-anchor="start" x="50.5" y="-413.9" font-family="Arial" font-size="14.00" fill="#000000">name </text>
<text text-anchor="start" x="89.399" y="-413.9" font-family="Arial" font-size="14.00" fill="#666666">[varchar(255)]</text>
<polygon fill="none" stroke="#000000" points="43.5,-372.5 43.5,-402.5 288.5,-402.5 288.5,-372.5 43.5,-372.5"/>
<text text-anchor="start" x="50.5" y="-383.9" font-family="Arial" font-size="14.00" fill="#000000">email </text>
<text text-anchor="start" x="87.8296" y="-383.9" font-family="Arial" font-size="14.00" fill="#666666">[varchar(255)]</text>
<polygon fill="none" stroke="#000000" points="43.5,-342.5 43.5,-372.5 288.5,-372.5 288.5,-342.5 43.5,-342.5"/>
<text text-anchor="start" x="50.5" y="-353.9" font-family="Arial" font-size="14.00" fill="#000000">encrypted_password </text>
<text text-anchor="start" x="183.535" y="-353.9" font-family="Arial" font-size="14.00" fill="#666666">[varchar(255)]</text>
<polygon fill="none" stroke="#000000" points="43.5,-312.5 43.5,-342.5 288.5,-342.5 288.5,-312.5 43.5,-312.5"/>
<text text-anchor="start" x="50.0863" y="-323.9" font-family="Arial" font-size="14.00" fill="#000000">reset_password_token </text>
<text text-anchor="start" x="194.7945" y="-323.9" font-family="Arial" font-size="14.00" fill="#666666">[varchar(255)]</text>
<polygon fill="none" stroke="#000000" points="43.5,-282.5 43.5,-312.5 288.5,-312.5 288.5,-282.5 43.5,-282.5"/>
<text text-anchor="start" x="50.5" y="-293.9" font-family="Arial" font-size="14.00" fill="#000000">reset_password_sent_at </text>
<text text-anchor="start" x="206.8814" y="-293.9" font-family="Arial" font-size="14.00" fill="#666666">[datetime]</text>
<polygon fill="none" stroke="#000000" points="43.5,-252.5 43.5,-282.5 288.5,-282.5 288.5,-252.5 43.5,-252.5"/>
<text text-anchor="start" x="50.5" y="-263.9" font-family="Arial" font-size="14.00" fill="#000000">remember_created_at </text>
<text text-anchor="start" x="192.0834" y="-263.9" font-family="Arial" font-size="14.00" fill="#666666">[datetime]</text>
<polygon fill="none" stroke="#000000" points="43.5,-222.5 43.5,-252.5 288.5,-252.5 288.5,-222.5 43.5,-222.5"/>
<text text-anchor="start" x="50.5" y="-233.9" font-family="Arial" font-size="14.00" fill="#000000">sign_in_count </text>
<text text-anchor="start" x="140.7552" y="-233.9" font-family="Arial" font-size="14.00" fill="#666666">[int(11)]</text>
<polygon fill="none" stroke="#000000" points="43.5,-192.5 43.5,-222.5 288.5,-222.5 288.5,-192.5 43.5,-192.5"/>
<text text-anchor="start" x="50.5" y="-203.9" font-family="Arial" font-size="14.00" fill="#000000">current_sign_in_at </text>
<text text-anchor="start" x="169.5322" y="-203.9" font-family="Arial" font-size="14.00" fill="#666666">[datetime]</text>
<polygon fill="none" stroke="#000000" points="43.5,-162.5 43.5,-192.5 288.5,-192.5 288.5,-162.5 43.5,-162.5"/>
<text text-anchor="start" x="50.5" y="-173.9" font-family="Arial" font-size="14.00" fill="#000000">last_sign_in_at </text>
<text text-anchor="start" x="147.7524" y="-173.9" font-family="Arial" font-size="14.00" fill="#666666">[datetime]</text>
<polygon fill="none" stroke="#000000" points="43.5,-132.5 43.5,-162.5 288.5,-162.5 288.5,-132.5 43.5,-132.5"/>
<text text-anchor="start" x="50.5" y="-143.9" font-family="Arial" font-size="14.00" fill="#000000">current_sign_in_ip </text>
<text text-anchor="start" x="168.7482" y="-143.9" font-family="Arial" font-size="14.00" fill="#666666">[varchar(255)]</text>
<polygon fill="none" stroke="#000000" points="43.5,-102.5 43.5,-132.5 288.5,-132.5 288.5,-102.5 43.5,-102.5"/>
<text text-anchor="start" x="50.5" y="-113.9" font-family="Arial" font-size="14.00" fill="#000000">last_sign_in_ip </text>
<text text-anchor="start" x="146.9684" y="-113.9" font-family="Arial" font-size="14.00" fill="#666666">[varchar(255)]</text>
<polygon fill="none" stroke="#000000" points="43.5,-72.5 43.5,-102.5 288.5,-102.5 288.5,-72.5 43.5,-72.5"/>
<text text-anchor="start" x="50.5" y="-83.9" font-family="Arial" font-size="14.00" fill="#000000">created_at </text>
<text text-anchor="start" x="120.528" y="-83.9" font-family="Arial" font-size="14.00" fill="#666666">[datetime(6)]</text>
<polygon fill="none" stroke="#000000" points="43.5,-42.5 43.5,-72.5 288.5,-72.5 288.5,-42.5 43.5,-42.5"/>
<text text-anchor="start" x="50.5" y="-53.9" font-family="Arial" font-size="14.00" fill="#000000">updated_at </text>
<text text-anchor="start" x="124.4326" y="-53.9" font-family="Arial" font-size="14.00" fill="#666666">[datetime(6)]</text>
</g>
<!-- roles&#45;&gt;users -->
<g id="edge1" class="edge">
<title>roles:user_id&#45;&gt;users:id</title>
<path fill="none" stroke="#000000" d="M238.4627,-726.7172C185.9134,-717.8068 222.7752,-634.7614 248.5,-577 258.2306,-555.1513 278.7694,-562.8487 288.5,-541 305.4064,-503.039 330.0556,-447.5 288.5,-447.5"/>
<polygon fill="#000000" stroke="#000000" points="238.5303,-726.7223 248.1501,-731.9864 243.5151,-727.1112 248.5,-727.5 248.5,-727.5 248.5,-727.5 243.5151,-727.1112 248.8499,-723.0136 238.5303,-726.7223 238.5303,-726.7223"/>
<text text-anchor="start" x="15.445" y="-737.5" font-family="Arial" font-size="10.00" fill="#000000">FOREIGN KEY (user_id) REFERENCES users (id)</text>
</g>
<!-- rooms -->
<g id="node3" class="node">
<title>rooms</title>
<polygon fill="#efefef" stroke="transparent" points="392.5,-372.5 392.5,-407.5 602.5,-407.5 602.5,-372.5 392.5,-372.5"/>
<polygon fill="none" stroke="#000000" points="392.5,-372.5 392.5,-407.5 602.5,-407.5 602.5,-372.5 392.5,-372.5"/>
<text text-anchor="start" x="423.8747" y="-385.3" font-family="Arial Bold" font-size="18.00" fill="#000000">rooms</text>
<text text-anchor="start" x="473.8715" y="-385.3" font-family="Arial" font-size="14.00" fill="#000000"> </text>
<text text-anchor="start" x="477.7621" y="-385.3" font-family="Arial" font-size="14.00" fill="#666666">[BASE TABLE]</text>
<polygon fill="none" stroke="#000000" points="392.5,-342.5 392.5,-372.5 602.5,-372.5 602.5,-342.5 392.5,-342.5"/>
<text text-anchor="start" x="399.5" y="-353.9" font-family="Arial" font-size="14.00" fill="#000000">id </text>
<text text-anchor="start" x="414.2798" y="-353.9" font-family="Arial" font-size="14.00" fill="#666666">[bigint(20)]</text>
<polygon fill="none" stroke="#000000" points="392.5,-312.5 392.5,-342.5 602.5,-342.5 602.5,-312.5 392.5,-312.5"/>
<text text-anchor="start" x="399.5" y="-323.9" font-family="Arial" font-size="14.00" fill="#000000">room_name </text>
<text text-anchor="start" x="478.068" y="-323.9" font-family="Arial" font-size="14.00" fill="#666666">[varchar(255)]</text>
<polygon fill="none" stroke="#000000" points="392.5,-282.5 392.5,-312.5 602.5,-312.5 602.5,-282.5 392.5,-282.5"/>
<text text-anchor="start" x="399.5" y="-293.9" font-family="Arial" font-size="14.00" fill="#000000">player_number </text>
<text text-anchor="start" x="496.7398" y="-293.9" font-family="Arial" font-size="14.00" fill="#666666">[int(11)]</text>
<polygon fill="none" stroke="#000000" points="392.5,-252.5 392.5,-282.5 602.5,-282.5 602.5,-252.5 392.5,-252.5"/>
<text text-anchor="start" x="399.4825" y="-263.9" font-family="Arial" font-size="14.00" fill="#000000">password_digest </text>
<text text-anchor="start" x="508.3983" y="-263.9" font-family="Arial" font-size="14.00" fill="#666666">[varchar(255)]</text>
<polygon fill="none" stroke="#000000" points="392.5,-222.5 392.5,-252.5 602.5,-252.5 602.5,-222.5 392.5,-222.5"/>
<text text-anchor="start" x="399.5" y="-233.9" font-family="Arial" font-size="14.00" fill="#000000">user_id </text>
<text text-anchor="start" x="449.2882" y="-233.9" font-family="Arial" font-size="14.00" fill="#666666">[bigint(20)]</text>
<polygon fill="none" stroke="#000000" points="392.5,-192.5 392.5,-222.5 602.5,-222.5 602.5,-192.5 392.5,-192.5"/>
<text text-anchor="start" x="399.5" y="-203.9" font-family="Arial" font-size="14.00" fill="#000000">created_at </text>
<text text-anchor="start" x="469.528" y="-203.9" font-family="Arial" font-size="14.00" fill="#666666">[datetime(6)]</text>
<polygon fill="none" stroke="#000000" points="392.5,-162.5 392.5,-192.5 602.5,-192.5 602.5,-162.5 392.5,-162.5"/>
<text text-anchor="start" x="399.5" y="-173.9" font-family="Arial" font-size="14.00" fill="#000000">updated_at </text>
<text text-anchor="start" x="473.4326" y="-173.9" font-family="Arial" font-size="14.00" fill="#666666">[datetime(6)]</text>
<polygon fill="none" stroke="#000000" points="392.5,-132.5 392.5,-162.5 602.5,-162.5 602.5,-132.5 392.5,-132.5"/>
<text text-anchor="start" x="399.5" y="-143.9" font-family="Arial" font-size="14.00" fill="#000000">token </text>
<text text-anchor="start" x="437.629" y="-143.9" font-family="Arial" font-size="14.00" fill="#666666">[varchar(255)]</text>
</g>
<!-- roles&#45;&gt;rooms -->
<g id="edge2" class="edge">
<title>roles:room_id&#45;&gt;rooms:id</title>
<path fill="none" stroke="#000000" d="M424.7531,-696.9019C550.349,-681.1011 244.7698,-357.5 392.5,-357.5"/>
<polygon fill="#000000" stroke="#000000" points="424.483,-696.9176 414.2379,-693.0076 419.4915,-697.2088 414.5,-697.5 414.5,-697.5 414.5,-697.5 419.4915,-697.2088 414.7621,-701.9924 424.483,-696.9176 424.483,-696.9176"/>
<text text-anchor="start" x="421.116" y="-707.5" font-family="Arial" font-size="10.00" fill="#000000">FOREIGN KEY (room_id) REFERENCES rooms (id)</text>
</g>
</g>
</svg>
