<?xml version="1.0" encoding="UTF-8" standalone="no"?>
<!DOCTYPE svg PUBLIC "-//W3C//DTD SVG 1.1//EN"
 "http://www.w3.org/Graphics/SVG/1.1/DTD/svg11.dtd">
<!-- Generated by graphviz version 2.40.1 (20161225.0304)
 -->
<!-- Title: rooms Pages: 1 -->
<svg width="607pt" height="712pt"
 viewBox="0.00 0.00 607.00 712.00" xmlns="http://www.w3.org/2000/svg" xmlns:xlink="http://www.w3.org/1999/xlink">
<g id="graph0" class="graph" transform="scale(1 1) rotate(0) translate(4 708)">
<title>rooms</title>
<polygon fill="#ffffff" stroke="transparent" points="-4,4 -4,-708 603,-708 603,4 -4,4"/>
<!-- rooms -->
<g id="node1" class="node">
<title>rooms</title>
<polygon fill="#efefef" stroke="transparent" points="186,-285.5 186,-320.5 396,-320.5 396,-285.5 186,-285.5"/>
<polygon fill="none" stroke="#000000" points="186,-285.5 186,-320.5 396,-320.5 396,-285.5 186,-285.5"/>
<text text-anchor="start" x="217.3747" y="-298.3" font-family="Arial Bold" font-size="18.00" fill="#000000">rooms</text>
<text text-anchor="start" x="267.3715" y="-298.3" font-family="Arial" font-size="14.00" fill="#000000"> </text>
<text text-anchor="start" x="271.2621" y="-298.3" font-family="Arial" font-size="14.00" fill="#666666">[BASE TABLE]</text>
<polygon fill="none" stroke="#000000" points="186,-255.5 186,-285.5 396,-285.5 396,-255.5 186,-255.5"/>
<text text-anchor="start" x="193" y="-266.9" font-family="Arial" font-size="14.00" fill="#000000">id </text>
<text text-anchor="start" x="207.7798" y="-266.9" font-family="Arial" font-size="14.00" fill="#666666">[bigint(20)]</text>
<polygon fill="none" stroke="#000000" points="186,-225.5 186,-255.5 396,-255.5 396,-225.5 186,-225.5"/>
<text text-anchor="start" x="193" y="-236.9" font-family="Arial" font-size="14.00" fill="#000000">room_name </text>
<text text-anchor="start" x="271.568" y="-236.9" font-family="Arial" font-size="14.00" fill="#666666">[varchar(255)]</text>
<polygon fill="none" stroke="#000000" points="186,-195.5 186,-225.5 396,-225.5 396,-195.5 186,-195.5"/>
<text text-anchor="start" x="193" y="-206.9" font-family="Arial" font-size="14.00" fill="#000000">player_number </text>
<text text-anchor="start" x="290.2398" y="-206.9" font-family="Arial" font-size="14.00" fill="#666666">[int(11)]</text>
<polygon fill="none" stroke="#000000" points="186,-165.5 186,-195.5 396,-195.5 396,-165.5 186,-165.5"/>
<text text-anchor="start" x="192.9825" y="-176.9" font-family="Arial" font-size="14.00" fill="#000000">password_digest </text>
<text text-anchor="start" x="301.8983" y="-176.9" font-family="Arial" font-size="14.00" fill="#666666">[varchar(255)]</text>
<polygon fill="none" stroke="#000000" points="186,-135.5 186,-165.5 396,-165.5 396,-135.5 186,-135.5"/>
<text text-anchor="start" x="193" y="-146.9" font-family="Arial" font-size="14.00" fill="#000000">user_id </text>
<text text-anchor="start" x="242.7882" y="-146.9" font-family="Arial" font-size="14.00" fill="#666666">[bigint(20)]</text>
<polygon fill="none" stroke="#000000" points="186,-105.5 186,-135.5 396,-135.5 396,-105.5 186,-105.5"/>
<text text-anchor="start" x="193" y="-116.9" font-family="Arial" font-size="14.00" fill="#000000">created_at </text>
<text text-anchor="start" x="263.028" y="-116.9" font-family="Arial" font-size="14.00" fill="#666666">[datetime(6)]</text>
<polygon fill="none" stroke="#000000" points="186,-75.5 186,-105.5 396,-105.5 396,-75.5 186,-75.5"/>
<text text-anchor="start" x="193" y="-86.9" font-family="Arial" font-size="14.00" fill="#000000">updated_at </text>
<text text-anchor="start" x="266.9326" y="-86.9" font-family="Arial" font-size="14.00" fill="#666666">[datetime(6)]</text>
<polygon fill="none" stroke="#000000" points="186,-45.5 186,-75.5 396,-75.5 396,-45.5 186,-45.5"/>
<text text-anchor="start" x="193" y="-56.9" font-family="Arial" font-size="14.00" fill="#000000">token </text>
<text text-anchor="start" x="231.129" y="-56.9" font-family="Arial" font-size="14.00" fill="#666666">[varchar(255)]</text>
<polygon fill="none" stroke="#000000" stroke-width="3" points="184.5,-44.5 184.5,-322.5 397.5,-322.5 397.5,-44.5 184.5,-44.5"/>
</g>
<!-- characters -->
<g id="node2" class="node">
<title>characters</title>
<polygon fill="#efefef" stroke="transparent" points="43,-625.5 43,-660.5 249,-660.5 249,-625.5 43,-625.5"/>
<polygon fill="none" stroke="#000000" points="43,-625.5 43,-660.5 249,-660.5 249,-625.5 43,-625.5"/>
<text text-anchor="start" x="55.3674" y="-638.3" font-family="Arial Bold" font-size="18.00" fill="#000000">characters</text>
<text text-anchor="start" x="139.3788" y="-638.3" font-family="Arial" font-size="14.00" fill="#000000"> </text>
<text text-anchor="start" x="143.2694" y="-638.3" font-family="Arial" font-size="14.00" fill="#666666">[BASE TABLE]</text>
<polygon fill="none" stroke="#000000" points="43,-595.5 43,-625.5 249,-625.5 249,-595.5 43,-595.5"/>
<text text-anchor="start" x="50" y="-606.9" font-family="Arial" font-size="14.00" fill="#000000">id </text>
<text text-anchor="start" x="64.7798" y="-606.9" font-family="Arial" font-size="14.00" fill="#666666">[bigint(20)]</text>
<polygon fill="none" stroke="#000000" points="43,-565.5 43,-595.5 249,-595.5 249,-565.5 43,-565.5"/>
<text text-anchor="start" x="49.9285" y="-576.9" font-family="Arial" font-size="14.00" fill="#000000">character_name </text>
<text text-anchor="start" x="154.9523" y="-576.9" font-family="Arial" font-size="14.00" fill="#666666">[varchar(255)]</text>
<polygon fill="none" stroke="#000000" points="43,-535.5 43,-565.5 249,-565.5 249,-535.5 43,-535.5"/>
<text text-anchor="start" x="50" y="-546.9" font-family="Arial" font-size="14.00" fill="#000000">pc_number </text>
<text text-anchor="start" x="123.9074" y="-546.9" font-family="Arial" font-size="14.00" fill="#666666">[int(11)]</text>
<polygon fill="none" stroke="#000000" points="43,-505.5 43,-535.5 249,-535.5 249,-505.5 43,-505.5"/>
<text text-anchor="start" x="50" y="-516.9" font-family="Arial" font-size="14.00" fill="#000000">room_id </text>
<text text-anchor="start" x="104.4488" y="-516.9" font-family="Arial" font-size="14.00" fill="#666666">[bigint(20)]</text>
<polygon fill="none" stroke="#000000" points="43,-475.5 43,-505.5 249,-505.5 249,-475.5 43,-475.5"/>
<text text-anchor="start" x="50" y="-486.9" font-family="Arial" font-size="14.00" fill="#000000">created_at </text>
<text text-anchor="start" x="120.028" y="-486.9" font-family="Arial" font-size="14.00" fill="#666666">[datetime(6)]</text>
<polygon fill="none" stroke="#000000" points="43,-445.5 43,-475.5 249,-475.5 249,-445.5 43,-445.5"/>
<text text-anchor="start" x="50" y="-456.9" font-family="Arial" font-size="14.00" fill="#000000">updated_at </text>
<text text-anchor="start" x="123.9326" y="-456.9" font-family="Arial" font-size="14.00" fill="#666666">[datetime(6)]</text>
</g>
<!-- characters&#45;&gt;rooms -->
<g id="edge1" class="edge">
<title>characters:room_id&#45;&gt;rooms:id</title>
<path fill="none" stroke="#000000" d="M259.3667,-519.3454C297.3602,-509.9128 273.2663,-444.8152 249,-403 232.8133,-375.1075 202.1867,-394.8925 186,-367 164.4729,-329.905 143.1111,-270.5 186,-270.5"/>
<polygon fill="#000000" stroke="#000000" points="258.9385,-519.393 248.5018,-516.0277 253.9693,-519.9465 249,-520.5 249,-520.5 249,-520.5 253.9693,-519.9465 249.4982,-524.9723 258.9385,-519.393 258.9385,-519.393"/>
<text text-anchor="start" x="71.116" y="-504.5" font-family="Arial" font-size="10.00" fill="#000000">FOREIGN KEY (room_id) REFERENCES rooms (id)</text>
</g>
<!-- roles -->
<g id="node3" class="node">
<title>roles</title>
<polygon fill="#efefef" stroke="transparent" points="353,-625.5 353,-660.5 519,-660.5 519,-625.5 353,-625.5"/>
<polygon fill="none" stroke="#000000" points="353,-625.5 353,-660.5 519,-660.5 519,-625.5 353,-625.5"/>
<text text-anchor="start" x="367.8737" y="-638.3" font-family="Arial Bold" font-size="18.00" fill="#000000">roles</text>
<text text-anchor="start" x="406.8725" y="-638.3" font-family="Arial" font-size="14.00" fill="#000000"> </text>
<text text-anchor="start" x="410.7631" y="-638.3" font-family="Arial" font-size="14.00" fill="#666666">[BASE TABLE]</text>
<polygon fill="none" stroke="#000000" points="353,-595.5 353,-625.5 519,-625.5 519,-595.5 353,-595.5"/>
<text text-anchor="start" x="360" y="-606.9" font-family="Arial" font-size="14.00" fill="#000000">id </text>
<text text-anchor="start" x="374.7798" y="-606.9" font-family="Arial" font-size="14.00" fill="#666666">[bigint(20)]</text>
<polygon fill="none" stroke="#000000" points="353,-565.5 353,-595.5 519,-595.5 519,-565.5 353,-565.5"/>
<text text-anchor="start" x="360" y="-576.9" font-family="Arial" font-size="14.00" fill="#000000">role </text>
<text text-anchor="start" x="387.223" y="-576.9" font-family="Arial" font-size="14.00" fill="#666666">[int(11)]</text>
<polygon fill="none" stroke="#000000" points="353,-535.5 353,-565.5 519,-565.5 519,-535.5 353,-535.5"/>
<text text-anchor="start" x="360" y="-546.9" font-family="Arial" font-size="14.00" fill="#000000">user_id </text>
<text text-anchor="start" x="409.7882" y="-546.9" font-family="Arial" font-size="14.00" fill="#666666">[bigint(20)]</text>
<polygon fill="none" stroke="#000000" points="353,-505.5 353,-535.5 519,-535.5 519,-505.5 353,-505.5"/>
<text text-anchor="start" x="360" y="-516.9" font-family="Arial" font-size="14.00" fill="#000000">room_id </text>
<text text-anchor="start" x="414.4488" y="-516.9" font-family="Arial" font-size="14.00" fill="#666666">[bigint(20)]</text>
<polygon fill="none" stroke="#000000" points="353,-475.5 353,-505.5 519,-505.5 519,-475.5 353,-475.5"/>
<text text-anchor="start" x="360" y="-486.9" font-family="Arial" font-size="14.00" fill="#000000">created_at </text>
<text text-anchor="start" x="430.028" y="-486.9" font-family="Arial" font-size="14.00" fill="#666666">[datetime(6)]</text>
<polygon fill="none" stroke="#000000" points="353,-445.5 353,-475.5 519,-475.5 519,-445.5 353,-445.5"/>
<text text-anchor="start" x="359.7518" y="-456.9" font-family="Arial" font-size="14.00" fill="#000000">updated_at </text>
<text text-anchor="start" x="433.6844" y="-456.9" font-family="Arial" font-size="14.00" fill="#666666">[datetime(6)]</text>
</g>
<!-- roles&#45;&gt;rooms -->
<g id="edge2" class="edge">
<title>roles:room_id&#45;&gt;rooms:id</title>
<path fill="none" stroke="#000000" d="M342.6963,-519.3783C305.2054,-510.2082 332.5436,-446.8053 353,-403 363.5461,-380.4165 385.4539,-389.5835 396,-367 414.1472,-328.1395 438.8889,-270.5 396,-270.5"/>
<polygon fill="#000000" stroke="#000000" points="343.0587,-519.4176 352.5129,-524.9736 348.0294,-519.9588 353,-520.5 353,-520.5 353,-520.5 348.0294,-519.9588 353.4871,-516.0264 343.0587,-519.4176 343.0587,-519.4176"/>
<text text-anchor="start" x="359.616" y="-530.5" font-family="Arial" font-size="10.00" fill="#000000">FOREIGN KEY (room_id) REFERENCES rooms (id)</text>
</g>
</g>
</svg>
