<?xml version="1.0" encoding="UTF-8" standalone="no"?>
<!DOCTYPE svg PUBLIC "-//W3C//DTD SVG 1.1//EN"
 "http://www.w3.org/Graphics/SVG/1.1/DTD/svg11.dtd">
<!-- Generated by graphviz version 2.40.1 (20161225.0304)
 -->
<!-- Title: shinobi_assist_31491_development Pages: 1 -->
<svg width="1628pt" height="1560pt"
 viewBox="0.00 0.00 1627.50 1560.00" xmlns="http://www.w3.org/2000/svg" xmlns:xlink="http://www.w3.org/1999/xlink">
<g id="graph0" class="graph" transform="scale(1 1) rotate(0) translate(4 1556)">
<title>shinobi_assist_31491_development</title>
<polygon fill="#ffffff" stroke="transparent" points="-4,4 -4,-1556 1623.5,-1556 1623.5,4 -4,4"/>
<!-- ar_internal_metadata -->
<g id="node1" class="node">
<title>ar_internal_metadata</title>
<polygon fill="#efefef" stroke="transparent" points="243,-1443.5 243,-1478.5 524,-1478.5 524,-1443.5 243,-1443.5"/>
<polygon fill="none" stroke="#000000" points="243,-1443.5 243,-1478.5 524,-1478.5 524,-1443.5 243,-1443.5"/>
<text text-anchor="start" x="249.8501" y="-1456.3" font-family="Arial Bold" font-size="18.00" fill="#000000">ar_internal_metadata</text>
<text text-anchor="start" x="419.8961" y="-1456.3" font-family="Arial" font-size="14.00" fill="#000000"> </text>
<text text-anchor="start" x="423.7867" y="-1456.3" font-family="Arial" font-size="14.00" fill="#666666">[BASE TABLE]</text>
<polygon fill="none" stroke="#000000" points="243,-1413.5 243,-1443.5 524,-1443.5 524,-1413.5 243,-1413.5"/>
<text text-anchor="start" x="250" y="-1424.9" font-family="Arial" font-size="14.00" fill="#000000">key </text>
<text text-anchor="start" x="275.6732" y="-1424.9" font-family="Arial" font-size="14.00" fill="#666666">[varchar(255)]</text>
<polygon fill="none" stroke="#000000" points="243,-1383.5 243,-1413.5 524,-1413.5 524,-1383.5 243,-1383.5"/>
<text text-anchor="start" x="250" y="-1394.9" font-family="Arial" font-size="14.00" fill="#000000">value </text>
<text text-anchor="start" x="287.345" y="-1394.9" font-family="Arial" font-size="14.00" fill="#666666">[varchar(255)]</text>
<polygon fill="none" stroke="#000000" points="243,-1353.5 243,-1383.5 524,-1383.5 524,-1353.5 243,-1353.5"/>
<text text-anchor="start" x="250" y="-1364.9" font-family="Arial" font-size="14.00" fill="#000000">created_at </text>
<text text-anchor="start" x="320.028" y="-1364.9" font-family="Arial" font-size="14.00" fill="#666666">[datetime(6)]</text>
<polygon fill="none" stroke="#000000" points="243,-1323.5 243,-1353.5 524,-1353.5 524,-1323.5 243,-1323.5"/>
<text text-anchor="start" x="250" y="-1334.9" font-family="Arial" font-size="14.00" fill="#000000">updated_at </text>
<text text-anchor="start" x="323.9326" y="-1334.9" font-family="Arial" font-size="14.00" fill="#666666">[datetime(6)]</text>
</g>
<!-- characters -->
<g id="node2" class="node">
<title>characters</title>
<polygon fill="#efefef" stroke="transparent" points="519,-799.5 519,-834.5 725,-834.5 725,-799.5 519,-799.5"/>
<polygon fill="none" stroke="#000000" points="519,-799.5 519,-834.5 725,-834.5 725,-799.5 519,-799.5"/>
<text text-anchor="start" x="531.3674" y="-812.3" font-family="Arial Bold" font-size="18.00" fill="#000000">characters</text>
<text text-anchor="start" x="615.3788" y="-812.3" font-family="Arial" font-size="14.00" fill="#000000"> </text>
<text text-anchor="start" x="619.2694" y="-812.3" font-family="Arial" font-size="14.00" fill="#666666">[BASE TABLE]</text>
<polygon fill="none" stroke="#000000" points="519,-769.5 519,-799.5 725,-799.5 725,-769.5 519,-769.5"/>
<text text-anchor="start" x="526" y="-780.9" font-family="Arial" font-size="14.00" fill="#000000">id </text>
<text text-anchor="start" x="540.7798" y="-780.9" font-family="Arial" font-size="14.00" fill="#666666">[bigint(20)]</text>
<polygon fill="none" stroke="#000000" points="519,-739.5 519,-769.5 725,-769.5 725,-739.5 519,-739.5"/>
<text text-anchor="start" x="525.9285" y="-750.9" font-family="Arial" font-size="14.00" fill="#000000">character_name </text>
<text text-anchor="start" x="630.9523" y="-750.9" font-family="Arial" font-size="14.00" fill="#666666">[varchar(255)]</text>
<polygon fill="none" stroke="#000000" points="519,-709.5 519,-739.5 725,-739.5 725,-709.5 519,-709.5"/>
<text text-anchor="start" x="526" y="-720.9" font-family="Arial" font-size="14.00" fill="#000000">pc_number </text>
<text text-anchor="start" x="599.9074" y="-720.9" font-family="Arial" font-size="14.00" fill="#666666">[int(11)]</text>
<polygon fill="none" stroke="#000000" points="519,-679.5 519,-709.5 725,-709.5 725,-679.5 519,-679.5"/>
<text text-anchor="start" x="526" y="-690.9" font-family="Arial" font-size="14.00" fill="#000000">room_id </text>
<text text-anchor="start" x="580.4488" y="-690.9" font-family="Arial" font-size="14.00" fill="#666666">[bigint(20)]</text>
<polygon fill="none" stroke="#000000" points="519,-649.5 519,-679.5 725,-679.5 725,-649.5 519,-649.5"/>
<text text-anchor="start" x="526" y="-660.9" font-family="Arial" font-size="14.00" fill="#000000">created_at </text>
<text text-anchor="start" x="596.028" y="-660.9" font-family="Arial" font-size="14.00" fill="#666666">[datetime(6)]</text>
<polygon fill="none" stroke="#000000" points="519,-619.5 519,-649.5 725,-649.5 725,-619.5 519,-619.5"/>
<text text-anchor="start" x="526" y="-630.9" font-family="Arial" font-size="14.00" fill="#000000">updated_at </text>
<text text-anchor="start" x="599.9326" y="-630.9" font-family="Arial" font-size="14.00" fill="#666666">[datetime(6)]</text>
</g>
<!-- rooms -->
<g id="node9" class="node">
<title>rooms</title>
<polygon fill="#efefef" stroke="transparent" points="643,-372.5 643,-407.5 853,-407.5 853,-372.5 643,-372.5"/>
<polygon fill="none" stroke="#000000" points="643,-372.5 643,-407.5 853,-407.5 853,-372.5 643,-372.5"/>
<text text-anchor="start" x="674.3747" y="-385.3" font-family="Arial Bold" font-size="18.00" fill="#000000">rooms</text>
<text text-anchor="start" x="724.3715" y="-385.3" font-family="Arial" font-size="14.00" fill="#000000"> </text>
<text text-anchor="start" x="728.2621" y="-385.3" font-family="Arial" font-size="14.00" fill="#666666">[BASE TABLE]</text>
<polygon fill="none" stroke="#000000" points="643,-342.5 643,-372.5 853,-372.5 853,-342.5 643,-342.5"/>
<text text-anchor="start" x="650" y="-353.9" font-family="Arial" font-size="14.00" fill="#000000">id </text>
<text text-anchor="start" x="664.7798" y="-353.9" font-family="Arial" font-size="14.00" fill="#666666">[bigint(20)]</text>
<polygon fill="none" stroke="#000000" points="643,-312.5 643,-342.5 853,-342.5 853,-312.5 643,-312.5"/>
<text text-anchor="start" x="650" y="-323.9" font-family="Arial" font-size="14.00" fill="#000000">room_name </text>
<text text-anchor="start" x="728.568" y="-323.9" font-family="Arial" font-size="14.00" fill="#666666">[varchar(255)]</text>
<polygon fill="none" stroke="#000000" points="643,-282.5 643,-312.5 853,-312.5 853,-282.5 643,-282.5"/>
<text text-anchor="start" x="650" y="-293.9" font-family="Arial" font-size="14.00" fill="#000000">player_number </text>
<text text-anchor="start" x="747.2398" y="-293.9" font-family="Arial" font-size="14.00" fill="#666666">[int(11)]</text>
<polygon fill="none" stroke="#000000" points="643,-252.5 643,-282.5 853,-282.5 853,-252.5 643,-252.5"/>
<text text-anchor="start" x="649.9825" y="-263.9" font-family="Arial" font-size="14.00" fill="#000000">password_digest </text>
<text text-anchor="start" x="758.8983" y="-263.9" font-family="Arial" font-size="14.00" fill="#666666">[varchar(255)]</text>
<polygon fill="none" stroke="#000000" points="643,-222.5 643,-252.5 853,-252.5 853,-222.5 643,-222.5"/>
<text text-anchor="start" x="650" y="-233.9" font-family="Arial" font-size="14.00" fill="#000000">user_id </text>
<text text-anchor="start" x="699.7882" y="-233.9" font-family="Arial" font-size="14.00" fill="#666666">[bigint(20)]</text>
<polygon fill="none" stroke="#000000" points="643,-192.5 643,-222.5 853,-222.5 853,-192.5 643,-192.5"/>
<text text-anchor="start" x="650" y="-203.9" font-family="Arial" font-size="14.00" fill="#000000">created_at </text>
<text text-anchor="start" x="720.028" y="-203.9" font-family="Arial" font-size="14.00" fill="#666666">[datetime(6)]</text>
<polygon fill="none" stroke="#000000" points="643,-162.5 643,-192.5 853,-192.5 853,-162.5 643,-162.5"/>
<text text-anchor="start" x="650" y="-173.9" font-family="Arial" font-size="14.00" fill="#000000">updated_at </text>
<text text-anchor="start" x="723.9326" y="-173.9" font-family="Arial" font-size="14.00" fill="#666666">[datetime(6)]</text>
<polygon fill="none" stroke="#000000" points="643,-132.5 643,-162.5 853,-162.5 853,-132.5 643,-132.5"/>
<text text-anchor="start" x="650" y="-143.9" font-family="Arial" font-size="14.00" fill="#000000">token </text>
<text text-anchor="start" x="688.129" y="-143.9" font-family="Arial" font-size="14.00" fill="#666666">[varchar(255)]</text>
</g>
<!-- characters&#45;&gt;rooms -->
<g id="edge1" class="edge">
<title>characters:room_id&#45;&gt;rooms:id</title>
<path fill="none" stroke="#000000" d="M735.193,-693.4203C771.7997,-684.5857 738.7537,-623.3487 725,-577 705.9924,-512.946 662.0076,-515.054 643,-451 631.1782,-411.1615 601.4444,-357.5 643,-357.5"/>
<polygon fill="#000000" stroke="#000000" points="734.9444,-693.4465 724.5259,-690.025 729.9722,-693.9733 725,-694.5 725,-694.5 725,-694.5 729.9722,-693.9733 725.4741,-698.975 734.9444,-693.4465 734.9444,-693.4465"/>
<text text-anchor="start" x="731.616" y="-704.5" font-family="Arial" font-size="10.00" fill="#000000">FOREIGN KEY (room_id) REFERENCES rooms (id)</text>
</g>
<!-- conditions -->
<g id="node3" class="node">
<title>conditions</title>
<polygon fill="#efefef" stroke="transparent" points="92,-1121.5 92,-1156.5 284,-1156.5 284,-1121.5 92,-1121.5"/>
<polygon fill="none" stroke="#000000" points="92,-1121.5 92,-1156.5 284,-1156.5 284,-1121.5 92,-1121.5"/>
<text text-anchor="start" x="98.8623" y="-1134.3" font-family="Arial Bold" font-size="18.00" fill="#000000">conditions</text>
<text text-anchor="start" x="179.8839" y="-1134.3" font-family="Arial" font-size="14.00" fill="#000000"> </text>
<text text-anchor="start" x="183.7745" y="-1134.3" font-family="Arial" font-size="14.00" fill="#666666">[BASE TABLE]</text>
<polygon fill="none" stroke="#000000" points="92,-1091.5 92,-1121.5 284,-1121.5 284,-1091.5 92,-1091.5"/>
<text text-anchor="start" x="99" y="-1102.9" font-family="Arial" font-size="14.00" fill="#000000">id </text>
<text text-anchor="start" x="113.7798" y="-1102.9" font-family="Arial" font-size="14.00" fill="#666666">[bigint(20)]</text>
<polygon fill="none" stroke="#000000" points="92,-1061.5 92,-1091.5 284,-1091.5 284,-1061.5 92,-1061.5"/>
<text text-anchor="start" x="99" y="-1072.9" font-family="Arial" font-size="14.00" fill="#000000">state_id </text>
<text text-anchor="start" x="151.9088" y="-1072.9" font-family="Arial" font-size="14.00" fill="#666666">[int(11)]</text>
<polygon fill="none" stroke="#000000" points="92,-1031.5 92,-1061.5 284,-1061.5 284,-1031.5 92,-1031.5"/>
<text text-anchor="start" x="99" y="-1042.9" font-family="Arial" font-size="14.00" fill="#000000">character_id </text>
<text text-anchor="start" x="179.9046" y="-1042.9" font-family="Arial" font-size="14.00" fill="#666666">[bigint(20)]</text>
<polygon fill="none" stroke="#000000" points="92,-1001.5 92,-1031.5 284,-1031.5 284,-1001.5 92,-1001.5"/>
<text text-anchor="start" x="99" y="-1012.9" font-family="Arial" font-size="14.00" fill="#000000">created_at </text>
<text text-anchor="start" x="169.028" y="-1012.9" font-family="Arial" font-size="14.00" fill="#666666">[datetime(6)]</text>
<polygon fill="none" stroke="#000000" points="92,-971.5 92,-1001.5 284,-1001.5 284,-971.5 92,-971.5"/>
<text text-anchor="start" x="99" y="-982.9" font-family="Arial" font-size="14.00" fill="#000000">updated_at </text>
<text text-anchor="start" x="172.9326" y="-982.9" font-family="Arial" font-size="14.00" fill="#666666">[datetime(6)]</text>
</g>
<!-- conditions&#45;&gt;characters -->
<g id="edge2" class="edge">
<title>conditions:character_id&#45;&gt;characters:id</title>
<path fill="none" stroke="#000000" d="M294.0251,-1045.672C341.9138,-1036.9275 300.0885,-960.933 337,-914 398.3712,-835.9665 419.7244,-784.5 519,-784.5"/>
<polygon fill="#000000" stroke="#000000" points="293.9661,-1045.6768 283.6296,-1042.0153 288.983,-1046.0884 284,-1046.5 284,-1046.5 284,-1046.5 288.983,-1046.0884 284.3704,-1050.9847 293.9661,-1045.6768 293.9661,-1045.6768"/>
<text text-anchor="start" x="6.719" y="-1056.5" font-family="Arial" font-size="10.00" fill="#000000">FOREIGN KEY (character_id) REFERENCES characters (id)</text>
</g>
<!-- feelings -->
<g id="node4" class="node">
<title>feelings</title>
<polygon fill="#efefef" stroke="transparent" points="389,-1136.5 389,-1171.5 562,-1171.5 562,-1136.5 389,-1136.5"/>
<polygon fill="none" stroke="#000000" points="389,-1136.5 389,-1171.5 562,-1171.5 562,-1136.5 389,-1136.5"/>
<text text-anchor="start" x="395.8654" y="-1149.3" font-family="Arial Bold" font-size="18.00" fill="#000000">feelings</text>
<text text-anchor="start" x="457.8808" y="-1149.3" font-family="Arial" font-size="14.00" fill="#000000"> </text>
<text text-anchor="start" x="461.7714" y="-1149.3" font-family="Arial" font-size="14.00" fill="#666666">[BASE TABLE]</text>
<polygon fill="none" stroke="#000000" points="389,-1106.5 389,-1136.5 562,-1136.5 562,-1106.5 389,-1106.5"/>
<text text-anchor="start" x="396" y="-1117.9" font-family="Arial" font-size="14.00" fill="#000000">id </text>
<text text-anchor="start" x="410.7798" y="-1117.9" font-family="Arial" font-size="14.00" fill="#666666">[bigint(20)]</text>
<polygon fill="none" stroke="#000000" points="389,-1076.5 389,-1106.5 562,-1106.5 562,-1076.5 389,-1076.5"/>
<text text-anchor="start" x="396" y="-1087.9" font-family="Arial" font-size="14.00" fill="#000000">feel_id </text>
<text text-anchor="start" x="441.1248" y="-1087.9" font-family="Arial" font-size="14.00" fill="#666666">[int(11)]</text>
<polygon fill="none" stroke="#000000" points="389,-1046.5 389,-1076.5 562,-1076.5 562,-1046.5 389,-1046.5"/>
<text text-anchor="start" x="396" y="-1057.9" font-family="Arial" font-size="14.00" fill="#000000">feeling_to </text>
<text text-anchor="start" x="460.5806" y="-1057.9" font-family="Arial" font-size="14.00" fill="#666666">[varchar(255)]</text>
<polygon fill="none" stroke="#000000" points="389,-1016.5 389,-1046.5 562,-1046.5 562,-1016.5 389,-1016.5"/>
<text text-anchor="start" x="396" y="-1027.9" font-family="Arial" font-size="14.00" fill="#000000">character_id </text>
<text text-anchor="start" x="476.9046" y="-1027.9" font-family="Arial" font-size="14.00" fill="#666666">[bigint(20)]</text>
<polygon fill="none" stroke="#000000" points="389,-986.5 389,-1016.5 562,-1016.5 562,-986.5 389,-986.5"/>
<text text-anchor="start" x="396" y="-997.9" font-family="Arial" font-size="14.00" fill="#000000">created_at </text>
<text text-anchor="start" x="466.028" y="-997.9" font-family="Arial" font-size="14.00" fill="#666666">[datetime(6)]</text>
<polygon fill="none" stroke="#000000" points="389,-956.5 389,-986.5 562,-986.5 562,-956.5 389,-956.5"/>
<text text-anchor="start" x="396" y="-967.9" font-family="Arial" font-size="14.00" fill="#000000">updated_at </text>
<text text-anchor="start" x="469.9326" y="-967.9" font-family="Arial" font-size="14.00" fill="#666666">[datetime(6)]</text>
</g>
<!-- feelings&#45;&gt;characters -->
<g id="edge3" class="edge">
<title>feelings:character_id&#45;&gt;characters:id</title>
<path fill="none" stroke="#000000" d="M572.3037,-1030.3783C609.7946,-1021.2082 582.4564,-957.8053 562,-914 551.4539,-891.4165 529.5461,-900.5835 519,-878 501.417,-840.3476 477.4444,-784.5 519,-784.5"/>
<polygon fill="#000000" stroke="#000000" points="571.9413,-1030.4176 561.5129,-1027.0264 566.9706,-1030.9588 562,-1031.5 562,-1031.5 562,-1031.5 566.9706,-1030.9588 562.4871,-1035.9736 571.9413,-1030.4176 571.9413,-1030.4176"/>
<text text-anchor="start" x="426.719" y="-1015.5" font-family="Arial" font-size="10.00" fill="#000000">FOREIGN KEY (character_id) REFERENCES characters (id)</text>
</g>
<!-- last_resorts -->
<g id="node5" class="node">
<title>last_resorts</title>
<polygon fill="#efefef" stroke="transparent" points="666,-1136.5 666,-1171.5 870,-1171.5 870,-1136.5 666,-1136.5"/>
<polygon fill="none" stroke="#000000" points="666,-1136.5 666,-1171.5 870,-1171.5 870,-1136.5 666,-1136.5"/>
<text text-anchor="start" x="672.8692" y="-1149.3" font-family="Arial Bold" font-size="18.00" fill="#000000">last_resorts</text>
<text text-anchor="start" x="765.877" y="-1149.3" font-family="Arial" font-size="14.00" fill="#000000"> </text>
<text text-anchor="start" x="769.7676" y="-1149.3" font-family="Arial" font-size="14.00" fill="#666666">[BASE TABLE]</text>
<polygon fill="none" stroke="#000000" points="666,-1106.5 666,-1136.5 870,-1136.5 870,-1106.5 666,-1106.5"/>
<text text-anchor="start" x="673" y="-1117.9" font-family="Arial" font-size="14.00" fill="#000000">id </text>
<text text-anchor="start" x="687.7798" y="-1117.9" font-family="Arial" font-size="14.00" fill="#666666">[bigint(20)]</text>
<polygon fill="none" stroke="#000000" points="666,-1076.5 666,-1106.5 870,-1106.5 870,-1076.5 666,-1076.5"/>
<text text-anchor="start" x="673" y="-1087.9" font-family="Arial" font-size="14.00" fill="#000000">last_resort_n </text>
<text text-anchor="start" x="757.7952" y="-1087.9" font-family="Arial" font-size="14.00" fill="#666666">[int(11)]</text>
<polygon fill="none" stroke="#000000" points="666,-1046.5 666,-1076.5 870,-1076.5 870,-1046.5 666,-1046.5"/>
<text text-anchor="start" x="673" y="-1057.9" font-family="Arial" font-size="14.00" fill="#000000">last_resort </text>
<text text-anchor="start" x="742.23" y="-1057.9" font-family="Arial" font-size="14.00" fill="#666666">[text]</text>
<polygon fill="none" stroke="#000000" points="666,-1016.5 666,-1046.5 870,-1046.5 870,-1016.5 666,-1016.5"/>
<text text-anchor="start" x="673" y="-1027.9" font-family="Arial" font-size="14.00" fill="#000000">character_id </text>
<text text-anchor="start" x="753.9046" y="-1027.9" font-family="Arial" font-size="14.00" fill="#666666">[bigint(20)]</text>
<polygon fill="none" stroke="#000000" points="666,-986.5 666,-1016.5 870,-1016.5 870,-986.5 666,-986.5"/>
<text text-anchor="start" x="673" y="-997.9" font-family="Arial" font-size="14.00" fill="#000000">created_at </text>
<text text-anchor="start" x="743.028" y="-997.9" font-family="Arial" font-size="14.00" fill="#666666">[datetime(6)]</text>
<polygon fill="none" stroke="#000000" points="666,-956.5 666,-986.5 870,-986.5 870,-956.5 666,-956.5"/>
<text text-anchor="start" x="673" y="-967.9" font-family="Arial" font-size="14.00" fill="#000000">updated_at </text>
<text text-anchor="start" x="746.9326" y="-967.9" font-family="Arial" font-size="14.00" fill="#666666">[datetime(6)]</text>
</g>
<!-- last_resorts&#45;&gt;characters -->
<g id="edge4" class="edge">
<title>last_resorts:character_id&#45;&gt;characters:id</title>
<path fill="none" stroke="#000000" d="M655.6433,-1030.3511C617.7293,-1020.9639 642.3366,-956.1594 666,-914 681.0352,-887.2129 709.9648,-904.7871 725,-878 745.3396,-841.7624 766.5556,-784.5 725,-784.5"/>
<polygon fill="#000000" stroke="#000000" points="656.061,-1030.3973 665.5038,-1035.9726 661.0305,-1030.9487 666,-1031.5 666,-1031.5 666,-1031.5 661.0305,-1030.9487 666.4962,-1027.0274 656.061,-1030.3973 656.061,-1030.3973"/>
<text text-anchor="start" x="672.719" y="-1041.5" font-family="Arial" font-size="10.00" fill="#000000">FOREIGN KEY (character_id) REFERENCES characters (id)</text>
</g>
<!-- open_last_resorts -->
<g id="node6" class="node">
<title>open_last_resorts</title>
<polygon fill="#efefef" stroke="transparent" points="628,-1473.5 628,-1508.5 882,-1508.5 882,-1473.5 628,-1473.5"/>
<polygon fill="none" stroke="#000000" points="628,-1473.5 628,-1508.5 882,-1508.5 882,-1473.5 628,-1473.5"/>
<text text-anchor="start" x="634.8537" y="-1486.3" font-family="Arial Bold" font-size="18.00" fill="#000000">open_last_resorts</text>
<text text-anchor="start" x="777.8925" y="-1486.3" font-family="Arial" font-size="14.00" fill="#000000"> </text>
<text text-anchor="start" x="781.7831" y="-1486.3" font-family="Arial" font-size="14.00" fill="#666666">[BASE TABLE]</text>
<polygon fill="none" stroke="#000000" points="628,-1443.5 628,-1473.5 882,-1473.5 882,-1443.5 628,-1443.5"/>
<text text-anchor="start" x="635" y="-1454.9" font-family="Arial" font-size="14.00" fill="#000000">id </text>
<text text-anchor="start" x="649.7798" y="-1454.9" font-family="Arial" font-size="14.00" fill="#666666">[bigint(20)]</text>
<polygon fill="none" stroke="#000000" points="628,-1413.5 628,-1443.5 882,-1443.5 882,-1413.5 628,-1413.5"/>
<text text-anchor="start" x="635" y="-1424.9" font-family="Arial" font-size="14.00" fill="#000000">lr_unveil_to </text>
<text text-anchor="start" x="710.4572" y="-1424.9" font-family="Arial" font-size="14.00" fill="#666666">[int(11)]</text>
<polygon fill="none" stroke="#000000" points="628,-1383.5 628,-1413.5 882,-1413.5 882,-1383.5 628,-1383.5"/>
<text text-anchor="start" x="635" y="-1394.9" font-family="Arial" font-size="14.00" fill="#000000">unveiled_id </text>
<text text-anchor="start" x="709.6886" y="-1394.9" font-family="Arial" font-size="14.00" fill="#666666">[int(11)]</text>
<polygon fill="none" stroke="#000000" points="628,-1353.5 628,-1383.5 882,-1383.5 882,-1353.5 628,-1353.5"/>
<text text-anchor="start" x="635" y="-1364.9" font-family="Arial" font-size="14.00" fill="#000000">last_resort_id </text>
<text text-anchor="start" x="722.9018" y="-1364.9" font-family="Arial" font-size="14.00" fill="#666666">[bigint(20)]</text>
<polygon fill="none" stroke="#000000" points="628,-1323.5 628,-1353.5 882,-1353.5 882,-1323.5 628,-1323.5"/>
<text text-anchor="start" x="635" y="-1334.9" font-family="Arial" font-size="14.00" fill="#000000">created_at </text>
<text text-anchor="start" x="705.028" y="-1334.9" font-family="Arial" font-size="14.00" fill="#666666">[datetime(6)]</text>
<polygon fill="none" stroke="#000000" points="628,-1293.5 628,-1323.5 882,-1323.5 882,-1293.5 628,-1293.5"/>
<text text-anchor="start" x="635" y="-1304.9" font-family="Arial" font-size="14.00" fill="#000000">updated_at </text>
<text text-anchor="start" x="708.9326" y="-1304.9" font-family="Arial" font-size="14.00" fill="#666666">[datetime(6)]</text>
</g>
<!-- open_last_resorts&#45;&gt;last_resorts -->
<g id="edge5" class="edge">
<title>open_last_resorts:last_resort_id&#45;&gt;last_resorts:id</title>
<path fill="none" stroke="#000000" d="M891.9865,-1367.3884C931.5497,-1357.7669 913.3817,-1288.0449 882,-1251 819.0921,-1176.7397 728.9079,-1289.2603 666,-1215 639.1395,-1183.2923 624.4444,-1121.5 666,-1121.5"/>
<polygon fill="#000000" stroke="#000000" points="891.9386,-1367.3937 881.5021,-1364.0276 886.9693,-1367.9468 882,-1368.5 882,-1368.5 882,-1368.5 886.9693,-1367.9468 882.4979,-1372.9724 891.9386,-1367.3937 891.9386,-1367.3937"/>
<text text-anchor="start" x="888.721" y="-1378.5" font-family="Arial" font-size="10.00" fill="#000000">FOREIGN KEY (last_resort_id) REFERENCES last_resorts (id)</text>
</g>
<!-- open_secrets -->
<g id="node7" class="node">
<title>open_secrets</title>
<polygon fill="#efefef" stroke="transparent" points="987,-1473.5 987,-1508.5 1206,-1508.5 1206,-1473.5 987,-1473.5"/>
<polygon fill="none" stroke="#000000" points="987,-1473.5 987,-1508.5 1206,-1508.5 1206,-1473.5 987,-1473.5"/>
<text text-anchor="start" x="993.8542" y="-1486.3" font-family="Arial Bold" font-size="18.00" fill="#000000">open_secrets</text>
<text text-anchor="start" x="1101.892" y="-1486.3" font-family="Arial" font-size="14.00" fill="#000000"> </text>
<text text-anchor="start" x="1105.7826" y="-1486.3" font-family="Arial" font-size="14.00" fill="#666666">[BASE TABLE]</text>
<polygon fill="none" stroke="#000000" points="987,-1443.5 987,-1473.5 1206,-1473.5 1206,-1443.5 987,-1443.5"/>
<text text-anchor="start" x="994" y="-1454.9" font-family="Arial" font-size="14.00" fill="#000000">id </text>
<text text-anchor="start" x="1008.7798" y="-1454.9" font-family="Arial" font-size="14.00" fill="#666666">[bigint(20)]</text>
<polygon fill="none" stroke="#000000" points="987,-1413.5 987,-1443.5 1206,-1443.5 1206,-1413.5 987,-1413.5"/>
<text text-anchor="start" x="994" y="-1424.9" font-family="Arial" font-size="14.00" fill="#000000">secret_unveil_to </text>
<text text-anchor="start" x="1099.8064" y="-1424.9" font-family="Arial" font-size="14.00" fill="#666666">[int(11)]</text>
<polygon fill="none" stroke="#000000" points="987,-1383.5 987,-1413.5 1206,-1413.5 1206,-1383.5 987,-1383.5"/>
<text text-anchor="start" x="994" y="-1394.9" font-family="Arial" font-size="14.00" fill="#000000">unveiled_id </text>
<text text-anchor="start" x="1068.6886" y="-1394.9" font-family="Arial" font-size="14.00" fill="#666666">[int(11)]</text>
<polygon fill="none" stroke="#000000" points="987,-1353.5 987,-1383.5 1206,-1383.5 1206,-1353.5 987,-1353.5"/>
<text text-anchor="start" x="994" y="-1364.9" font-family="Arial" font-size="14.00" fill="#000000">secret_id </text>
<text text-anchor="start" x="1054.6788" y="-1364.9" font-family="Arial" font-size="14.00" fill="#666666">[bigint(20)]</text>
<polygon fill="none" stroke="#000000" points="987,-1323.5 987,-1353.5 1206,-1353.5 1206,-1323.5 987,-1323.5"/>
<text text-anchor="start" x="994" y="-1334.9" font-family="Arial" font-size="14.00" fill="#000000">created_at </text>
<text text-anchor="start" x="1064.028" y="-1334.9" font-family="Arial" font-size="14.00" fill="#666666">[datetime(6)]</text>
<polygon fill="none" stroke="#000000" points="987,-1293.5 987,-1323.5 1206,-1323.5 1206,-1293.5 987,-1293.5"/>
<text text-anchor="start" x="994" y="-1304.9" font-family="Arial" font-size="14.00" fill="#000000">updated_at </text>
<text text-anchor="start" x="1067.9326" y="-1304.9" font-family="Arial" font-size="14.00" fill="#666666">[datetime(6)]</text>
</g>
<!-- secrets -->
<g id="node11" class="node">
<title>secrets</title>
<polygon fill="#efefef" stroke="transparent" points="1000,-1136.5 1000,-1171.5 1169,-1171.5 1169,-1136.5 1000,-1136.5"/>
<polygon fill="none" stroke="#000000" points="1000,-1136.5 1000,-1171.5 1169,-1171.5 1169,-1136.5 1000,-1136.5"/>
<text text-anchor="start" x="1006.8697" y="-1149.3" font-family="Arial Bold" font-size="18.00" fill="#000000">secrets</text>
<text text-anchor="start" x="1064.8765" y="-1149.3" font-family="Arial" font-size="14.00" fill="#000000"> </text>
<text text-anchor="start" x="1068.7671" y="-1149.3" font-family="Arial" font-size="14.00" fill="#666666">[BASE TABLE]</text>
<polygon fill="none" stroke="#000000" points="1000,-1106.5 1000,-1136.5 1169,-1136.5 1169,-1106.5 1000,-1106.5"/>
<text text-anchor="start" x="1007" y="-1117.9" font-family="Arial" font-size="14.00" fill="#000000">id </text>
<text text-anchor="start" x="1021.7798" y="-1117.9" font-family="Arial" font-size="14.00" fill="#666666">[bigint(20)]</text>
<polygon fill="none" stroke="#000000" points="1000,-1076.5 1000,-1106.5 1169,-1106.5 1169,-1076.5 1000,-1076.5"/>
<text text-anchor="start" x="1007" y="-1087.9" font-family="Arial" font-size="14.00" fill="#000000">secret_n </text>
<text text-anchor="start" x="1064.5722" y="-1087.9" font-family="Arial" font-size="14.00" fill="#666666">[int(11)]</text>
<polygon fill="none" stroke="#000000" points="1000,-1046.5 1000,-1076.5 1169,-1076.5 1169,-1046.5 1000,-1046.5"/>
<text text-anchor="start" x="1007" y="-1057.9" font-family="Arial" font-size="14.00" fill="#000000">secret </text>
<text text-anchor="start" x="1049.007" y="-1057.9" font-family="Arial" font-size="14.00" fill="#666666">[text]</text>
<polygon fill="none" stroke="#000000" points="1000,-1016.5 1000,-1046.5 1169,-1046.5 1169,-1016.5 1000,-1016.5"/>
<text text-anchor="start" x="1007" y="-1027.9" font-family="Arial" font-size="14.00" fill="#000000">character_id </text>
<text text-anchor="start" x="1087.9046" y="-1027.9" font-family="Arial" font-size="14.00" fill="#666666">[bigint(20)]</text>
<polygon fill="none" stroke="#000000" points="1000,-986.5 1000,-1016.5 1169,-1016.5 1169,-986.5 1000,-986.5"/>
<text text-anchor="start" x="1007" y="-997.9" font-family="Arial" font-size="14.00" fill="#000000">created_at </text>
<text text-anchor="start" x="1077.028" y="-997.9" font-family="Arial" font-size="14.00" fill="#666666">[datetime(6)]</text>
<polygon fill="none" stroke="#000000" points="1000,-956.5 1000,-986.5 1169,-986.5 1169,-956.5 1000,-956.5"/>
<text text-anchor="start" x="1007" y="-967.9" font-family="Arial" font-size="14.00" fill="#000000">updated_at </text>
<text text-anchor="start" x="1080.9326" y="-967.9" font-family="Arial" font-size="14.00" fill="#666666">[datetime(6)]</text>
</g>
<!-- open_secrets&#45;&gt;secrets -->
<g id="edge6" class="edge">
<title>open_secrets:secret_id&#45;&gt;secrets:id</title>
<path fill="none" stroke="#000000" d="M977.0219,-1367.3954C937.5293,-1357.8328 956.1799,-1288.5135 987,-1251 1039.3436,-1187.2885 1116.6564,-1278.7115 1169,-1215 1195.3797,-1182.8912 1210.5556,-1121.5 1169,-1121.5"/>
<polygon fill="#000000" stroke="#000000" points="977.0607,-1367.3996 986.5048,-1372.9727 982.0304,-1367.9498 987,-1368.5 987,-1368.5 987,-1368.5 982.0304,-1367.9498 987.4952,-1364.0273 977.0607,-1367.3996 977.0607,-1367.3996"/>
<text text-anchor="start" x="994.166" y="-1352.5" font-family="Arial" font-size="10.00" fill="#000000">FOREIGN KEY (secret_id) REFERENCES secrets (id)</text>
</g>
<!-- roles -->
<g id="node8" class="node">
<title>roles</title>
<polygon fill="#efefef" stroke="transparent" points="829,-799.5 829,-834.5 995,-834.5 995,-799.5 829,-799.5"/>
<polygon fill="none" stroke="#000000" points="829,-799.5 829,-834.5 995,-834.5 995,-799.5 829,-799.5"/>
<text text-anchor="start" x="843.8737" y="-812.3" font-family="Arial Bold" font-size="18.00" fill="#000000">roles</text>
<text text-anchor="start" x="882.8725" y="-812.3" font-family="Arial" font-size="14.00" fill="#000000"> </text>
<text text-anchor="start" x="886.7631" y="-812.3" font-family="Arial" font-size="14.00" fill="#666666">[BASE TABLE]</text>
<polygon fill="none" stroke="#000000" points="829,-769.5 829,-799.5 995,-799.5 995,-769.5 829,-769.5"/>
<text text-anchor="start" x="836" y="-780.9" font-family="Arial" font-size="14.00" fill="#000000">id </text>
<text text-anchor="start" x="850.7798" y="-780.9" font-family="Arial" font-size="14.00" fill="#666666">[bigint(20)]</text>
<polygon fill="none" stroke="#000000" points="829,-739.5 829,-769.5 995,-769.5 995,-739.5 829,-739.5"/>
<text text-anchor="start" x="836" y="-750.9" font-family="Arial" font-size="14.00" fill="#000000">role </text>
<text text-anchor="start" x="863.223" y="-750.9" font-family="Arial" font-size="14.00" fill="#666666">[int(11)]</text>
<polygon fill="none" stroke="#000000" points="829,-709.5 829,-739.5 995,-739.5 995,-709.5 829,-709.5"/>
<text text-anchor="start" x="836" y="-720.9" font-family="Arial" font-size="14.00" fill="#000000">user_id </text>
<text text-anchor="start" x="885.7882" y="-720.9" font-family="Arial" font-size="14.00" fill="#666666">[bigint(20)]</text>
<polygon fill="none" stroke="#000000" points="829,-679.5 829,-709.5 995,-709.5 995,-679.5 829,-679.5"/>
<text text-anchor="start" x="836" y="-690.9" font-family="Arial" font-size="14.00" fill="#000000">room_id </text>
<text text-anchor="start" x="890.4488" y="-690.9" font-family="Arial" font-size="14.00" fill="#666666">[bigint(20)]</text>
<polygon fill="none" stroke="#000000" points="829,-649.5 829,-679.5 995,-679.5 995,-649.5 829,-649.5"/>
<text text-anchor="start" x="836" y="-660.9" font-family="Arial" font-size="14.00" fill="#000000">created_at </text>
<text text-anchor="start" x="906.028" y="-660.9" font-family="Arial" font-size="14.00" fill="#666666">[datetime(6)]</text>
<polygon fill="none" stroke="#000000" points="829,-619.5 829,-649.5 995,-649.5 995,-619.5 829,-619.5"/>
<text text-anchor="start" x="835.7518" y="-630.9" font-family="Arial" font-size="14.00" fill="#000000">updated_at </text>
<text text-anchor="start" x="909.6844" y="-630.9" font-family="Arial" font-size="14.00" fill="#666666">[datetime(6)]</text>
</g>
<!-- roles&#45;&gt;rooms -->
<g id="edge8" class="edge">
<title>roles:room_id&#45;&gt;rooms:id</title>
<path fill="none" stroke="#000000" d="M818.8368,-693.9072C694.3957,-678.2458 999.4912,-357.5 853,-357.5"/>
<polygon fill="#000000" stroke="#000000" points="819.017,-693.9176 828.7379,-698.9924 824.0085,-694.2088 829,-694.5 829,-694.5 829,-694.5 824.0085,-694.2088 829.2621,-690.0076 819.017,-693.9176 819.017,-693.9176"/>
<text text-anchor="start" x="651.116" y="-678.5" font-family="Arial" font-size="10.00" fill="#000000">FOREIGN KEY (room_id) REFERENCES rooms (id)</text>
</g>
<!-- users -->
<g id="node13" class="node">
<title>users</title>
<polygon fill="#efefef" stroke="transparent" points="1021,-462.5 1021,-497.5 1266,-497.5 1266,-462.5 1021,-462.5"/>
<polygon fill="none" stroke="#000000" points="1021,-462.5 1021,-497.5 1266,-497.5 1266,-462.5 1021,-462.5"/>
<text text-anchor="start" x="1072.8708" y="-475.3" font-family="Arial Bold" font-size="18.00" fill="#000000">users</text>
<text text-anchor="start" x="1116.8754" y="-475.3" font-family="Arial" font-size="14.00" fill="#000000"> </text>
<text text-anchor="start" x="1120.766" y="-475.3" font-family="Arial" font-size="14.00" fill="#666666">[BASE TABLE]</text>
<polygon fill="none" stroke="#000000" points="1021,-432.5 1021,-462.5 1266,-462.5 1266,-432.5 1021,-432.5"/>
<text text-anchor="start" x="1028" y="-443.9" font-family="Arial" font-size="14.00" fill="#000000">id </text>
<text text-anchor="start" x="1042.7798" y="-443.9" font-family="Arial" font-size="14.00" fill="#666666">[bigint(20)]</text>
<polygon fill="none" stroke="#000000" points="1021,-402.5 1021,-432.5 1266,-432.5 1266,-402.5 1021,-402.5"/>
<text text-anchor="start" x="1028" y="-413.9" font-family="Arial" font-size="14.00" fill="#000000">name </text>
<text text-anchor="start" x="1066.899" y="-413.9" font-family="Arial" font-size="14.00" fill="#666666">[varchar(255)]</text>
<polygon fill="none" stroke="#000000" points="1021,-372.5 1021,-402.5 1266,-402.5 1266,-372.5 1021,-372.5"/>
<text text-anchor="start" x="1028" y="-383.9" font-family="Arial" font-size="14.00" fill="#000000">email </text>
<text text-anchor="start" x="1065.3296" y="-383.9" font-family="Arial" font-size="14.00" fill="#666666">[varchar(255)]</text>
<polygon fill="none" stroke="#000000" points="1021,-342.5 1021,-372.5 1266,-372.5 1266,-342.5 1021,-342.5"/>
<text text-anchor="start" x="1028" y="-353.9" font-family="Arial" font-size="14.00" fill="#000000">encrypted_password </text>
<text text-anchor="start" x="1161.035" y="-353.9" font-family="Arial" font-size="14.00" fill="#666666">[varchar(255)]</text>
<polygon fill="none" stroke="#000000" points="1021,-312.5 1021,-342.5 1266,-342.5 1266,-312.5 1021,-312.5"/>
<text text-anchor="start" x="1027.5863" y="-323.9" font-family="Arial" font-size="14.00" fill="#000000">reset_password_token </text>
<text text-anchor="start" x="1172.2945" y="-323.9" font-family="Arial" font-size="14.00" fill="#666666">[varchar(255)]</text>
<polygon fill="none" stroke="#000000" points="1021,-282.5 1021,-312.5 1266,-312.5 1266,-282.5 1021,-282.5"/>
<text text-anchor="start" x="1028" y="-293.9" font-family="Arial" font-size="14.00" fill="#000000">reset_password_sent_at </text>
<text text-anchor="start" x="1184.3814" y="-293.9" font-family="Arial" font-size="14.00" fill="#666666">[datetime]</text>
<polygon fill="none" stroke="#000000" points="1021,-252.5 1021,-282.5 1266,-282.5 1266,-252.5 1021,-252.5"/>
<text text-anchor="start" x="1028" y="-263.9" font-family="Arial" font-size="14.00" fill="#000000">remember_created_at </text>
<text text-anchor="start" x="1169.5834" y="-263.9" font-family="Arial" font-size="14.00" fill="#666666">[datetime]</text>
<polygon fill="none" stroke="#000000" points="1021,-222.5 1021,-252.5 1266,-252.5 1266,-222.5 1021,-222.5"/>
<text text-anchor="start" x="1028" y="-233.9" font-family="Arial" font-size="14.00" fill="#000000">sign_in_count </text>
<text text-anchor="start" x="1118.2552" y="-233.9" font-family="Arial" font-size="14.00" fill="#666666">[int(11)]</text>
<polygon fill="none" stroke="#000000" points="1021,-192.5 1021,-222.5 1266,-222.5 1266,-192.5 1021,-192.5"/>
<text text-anchor="start" x="1028" y="-203.9" font-family="Arial" font-size="14.00" fill="#000000">current_sign_in_at </text>
<text text-anchor="start" x="1147.0322" y="-203.9" font-family="Arial" font-size="14.00" fill="#666666">[datetime]</text>
<polygon fill="none" stroke="#000000" points="1021,-162.5 1021,-192.5 1266,-192.5 1266,-162.5 1021,-162.5"/>
<text text-anchor="start" x="1028" y="-173.9" font-family="Arial" font-size="14.00" fill="#000000">last_sign_in_at </text>
<text text-anchor="start" x="1125.2524" y="-173.9" font-family="Arial" font-size="14.00" fill="#666666">[datetime]</text>
<polygon fill="none" stroke="#000000" points="1021,-132.5 1021,-162.5 1266,-162.5 1266,-132.5 1021,-132.5"/>
<text text-anchor="start" x="1028" y="-143.9" font-family="Arial" font-size="14.00" fill="#000000">current_sign_in_ip </text>
<text text-anchor="start" x="1146.2482" y="-143.9" font-family="Arial" font-size="14.00" fill="#666666">[varchar(255)]</text>
<polygon fill="none" stroke="#000000" points="1021,-102.5 1021,-132.5 1266,-132.5 1266,-102.5 1021,-102.5"/>
<text text-anchor="start" x="1028" y="-113.9" font-family="Arial" font-size="14.00" fill="#000000">last_sign_in_ip </text>
<text text-anchor="start" x="1124.4684" y="-113.9" font-family="Arial" font-size="14.00" fill="#666666">[varchar(255)]</text>
<polygon fill="none" stroke="#000000" points="1021,-72.5 1021,-102.5 1266,-102.5 1266,-72.5 1021,-72.5"/>
<text text-anchor="start" x="1028" y="-83.9" font-family="Arial" font-size="14.00" fill="#000000">created_at </text>
<text text-anchor="start" x="1098.028" y="-83.9" font-family="Arial" font-size="14.00" fill="#666666">[datetime(6)]</text>
<polygon fill="none" stroke="#000000" points="1021,-42.5 1021,-72.5 1266,-72.5 1266,-42.5 1021,-42.5"/>
<text text-anchor="start" x="1028" y="-53.9" font-family="Arial" font-size="14.00" fill="#000000">updated_at </text>
<text text-anchor="start" x="1101.9326" y="-53.9" font-family="Arial" font-size="14.00" fill="#666666">[datetime(6)]</text>
</g>
<!-- roles&#45;&gt;users -->
<g id="edge7" class="edge">
<title>roles:user_id&#45;&gt;users:id</title>
<path fill="none" stroke="#000000" d="M1004.997,-723.8007C1105.9813,-708.5073 900.9704,-447.5 1021,-447.5"/>
<polygon fill="#000000" stroke="#000000" points="1004.9756,-723.8021 994.6859,-720.011 999.9878,-724.151 995,-724.5 995,-724.5 995,-724.5 999.9878,-724.151 995.3141,-728.989 1004.9756,-723.8021 1004.9756,-723.8021"/>
<text text-anchor="start" x="761.945" y="-734.5" font-family="Arial" font-size="10.00" fill="#000000">FOREIGN KEY (user_id) REFERENCES users (id)</text>
</g>
<!-- schema_migrations -->
<g id="node10" class="node">
<title>schema_migrations</title>
<polygon fill="#efefef" stroke="transparent" points="1310,-1398.5 1310,-1433.5 1577,-1433.5 1577,-1398.5 1310,-1398.5"/>
<polygon fill="none" stroke="#000000" points="1310,-1398.5 1310,-1433.5 1577,-1433.5 1577,-1398.5 1310,-1398.5"/>
<text text-anchor="start" x="1316.8647" y="-1411.3" font-family="Arial Bold" font-size="18.00" fill="#000000">schema_migrations</text>
<text text-anchor="start" x="1472.8815" y="-1411.3" font-family="Arial" font-size="14.00" fill="#000000"> </text>
<text text-anchor="start" x="1476.7721" y="-1411.3" font-family="Arial" font-size="14.00" fill="#666666">[BASE TABLE]</text>
<polygon fill="none" stroke="#000000" points="1310,-1368.5 1310,-1398.5 1577,-1398.5 1577,-1368.5 1310,-1368.5"/>
<text text-anchor="start" x="1317" y="-1379.9" font-family="Arial" font-size="14.00" fill="#000000">version </text>
<text text-anchor="start" x="1366.0056" y="-1379.9" font-family="Arial" font-size="14.00" fill="#666666">[varchar(255)]</text>
</g>
<!-- secrets&#45;&gt;characters -->
<g id="edge9" class="edge">
<title>secrets:character_id&#45;&gt;characters:id</title>
<path fill="none" stroke="#000000" d="M989.9599,-1030.6873C941.228,-1022.1183 970.2286,-948 922,-914 867.7294,-875.7405 829.7278,-918.3592 777,-878 739.2415,-849.0987 772.5498,-784.5 725,-784.5"/>
<polygon fill="#000000" stroke="#000000" points="990.0326,-1030.693 999.6369,-1035.9853 995.0163,-1031.0965 1000,-1031.5 1000,-1031.5 1000,-1031.5 995.0163,-1031.0965 1000.3631,-1027.0147 990.0326,-1030.693 990.0326,-1030.693"/>
<text text-anchor="start" x="1006.719" y="-1041.5" font-family="Arial" font-size="10.00" fill="#000000">FOREIGN KEY (character_id) REFERENCES characters (id)</text>
</g>
<!-- session_logs -->
<g id="node12" class="node">
<title>session_logs</title>
<polygon fill="#efefef" stroke="transparent" points="1100,-799.5 1100,-834.5 1315,-834.5 1315,-799.5 1100,-799.5"/>
<polygon fill="none" stroke="#000000" points="1100,-799.5 1100,-834.5 1315,-834.5 1315,-799.5 1100,-799.5"/>
<text text-anchor="start" x="1106.8603" y="-812.3" font-family="Arial Bold" font-size="18.00" fill="#000000">session_logs</text>
<text text-anchor="start" x="1210.8859" y="-812.3" font-family="Arial" font-size="14.00" fill="#000000"> </text>
<text text-anchor="start" x="1214.7765" y="-812.3" font-family="Arial" font-size="14.00" fill="#666666">[BASE TABLE]</text>
<polygon fill="none" stroke="#000000" points="1100,-769.5 1100,-799.5 1315,-799.5 1315,-769.5 1100,-769.5"/>
<text text-anchor="start" x="1107" y="-780.9" font-family="Arial" font-size="14.00" fill="#000000">id </text>
<text text-anchor="start" x="1121.7798" y="-780.9" font-family="Arial" font-size="14.00" fill="#666666">[bigint(20)]</text>
<polygon fill="none" stroke="#000000" points="1100,-739.5 1100,-769.5 1315,-769.5 1315,-739.5 1100,-739.5"/>
<text text-anchor="start" x="1107" y="-750.9" font-family="Arial" font-size="14.00" fill="#000000">title </text>
<text text-anchor="start" x="1132.6676" y="-750.9" font-family="Arial" font-size="14.00" fill="#666666">[varchar(255)]</text>
<polygon fill="none" stroke="#000000" points="1100,-709.5 1100,-739.5 1315,-739.5 1315,-709.5 1100,-709.5"/>
<text text-anchor="start" x="1107" y="-720.9" font-family="Arial" font-size="14.00" fill="#000000">log </text>
<text text-anchor="start" x="1129.5624" y="-720.9" font-family="Arial" font-size="14.00" fill="#666666">[text]</text>
<polygon fill="none" stroke="#000000" points="1100,-679.5 1100,-709.5 1315,-709.5 1315,-679.5 1100,-679.5"/>
<text text-anchor="start" x="1107" y="-690.9" font-family="Arial" font-size="14.00" fill="#000000">user_id </text>
<text text-anchor="start" x="1156.7882" y="-690.9" font-family="Arial" font-size="14.00" fill="#666666">[bigint(20)]</text>
<polygon fill="none" stroke="#000000" points="1100,-649.5 1100,-679.5 1315,-679.5 1315,-649.5 1100,-649.5"/>
<text text-anchor="start" x="1107" y="-660.9" font-family="Arial" font-size="14.00" fill="#000000">created_at </text>
<text text-anchor="start" x="1177.028" y="-660.9" font-family="Arial" font-size="14.00" fill="#666666">[datetime(6)]</text>
<polygon fill="none" stroke="#000000" points="1100,-619.5 1100,-649.5 1315,-649.5 1315,-619.5 1100,-619.5"/>
<text text-anchor="start" x="1107" y="-630.9" font-family="Arial" font-size="14.00" fill="#000000">updated_at </text>
<text text-anchor="start" x="1180.9326" y="-630.9" font-family="Arial" font-size="14.00" fill="#666666">[datetime(6)]</text>
</g>
<!-- session_logs&#45;&gt;users -->
<g id="edge10" class="edge">
<title>session_logs:user_id&#45;&gt;users:id</title>
<path fill="none" stroke="#000000" d="M1090.027,-693.3995C1050.5777,-683.8722 1069.5241,-614.7936 1100,-577 1147.3882,-518.2333 1218.6118,-599.7667 1266,-541 1292.0852,-508.6515 1307.5556,-447.5 1266,-447.5"/>
<polygon fill="#000000" stroke="#000000" points="1090.0603,-693.4031 1099.5064,-698.9729 1095.0302,-693.9516 1100,-694.5 1100,-694.5 1100,-694.5 1095.0302,-693.9516 1100.4936,-690.0271 1090.0603,-693.4031 1090.0603,-693.4031"/>
<text text-anchor="start" x="926.945" y="-678.5" font-family="Arial" font-size="10.00" fill="#000000">FOREIGN KEY (user_id) REFERENCES users (id)</text>
</g>
</g>
</svg>
