<?xml version="1.0" encoding="UTF-8" standalone="no"?>
<!DOCTYPE svg PUBLIC "-//W3C//DTD SVG 1.1//EN"
 "http://www.w3.org/Graphics/SVG/1.1/DTD/svg11.dtd">
<!-- Generated by graphviz version 2.40.1 (20161225.0304)
 -->
<!-- Title: secrets Pages: 1 -->
<svg width="741pt" height="989pt"
 viewBox="0.00 0.00 741.00 989.00" xmlns="http://www.w3.org/2000/svg" xmlns:xlink="http://www.w3.org/1999/xlink">
<g id="graph0" class="graph" transform="scale(1 1) rotate(0) translate(4 985)">
<title>secrets</title>
<polygon fill="#ffffff" stroke="transparent" points="-4,4 -4,-985 737,-985 737,4 -4,4"/>
<!-- secrets -->
<g id="node1" class="node">
<title>secrets</title>
<polygon fill="#efefef" stroke="transparent" points="280,-562.5 280,-597.5 449,-597.5 449,-562.5 280,-562.5"/>
<polygon fill="none" stroke="#000000" points="280,-562.5 280,-597.5 449,-597.5 449,-562.5 280,-562.5"/>
<text text-anchor="start" x="286.8697" y="-575.3" font-family="Arial Bold" font-size="18.00" fill="#000000">secrets</text>
<text text-anchor="start" x="344.8765" y="-575.3" font-family="Arial" font-size="14.00" fill="#000000"> </text>
<text text-anchor="start" x="348.7671" y="-575.3" font-family="Arial" font-size="14.00" fill="#666666">[BASE TABLE]</text>
<polygon fill="none" stroke="#000000" points="280,-532.5 280,-562.5 449,-562.5 449,-532.5 280,-532.5"/>
<text text-anchor="start" x="287" y="-543.9" font-family="Arial" font-size="14.00" fill="#000000">id </text>
<text text-anchor="start" x="301.7798" y="-543.9" font-family="Arial" font-size="14.00" fill="#666666">[bigint(20)]</text>
<polygon fill="none" stroke="#000000" points="280,-502.5 280,-532.5 449,-532.5 449,-502.5 280,-502.5"/>
<text text-anchor="start" x="287" y="-513.9" font-family="Arial" font-size="14.00" fill="#000000">secret_n </text>
<text text-anchor="start" x="344.5722" y="-513.9" font-family="Arial" font-size="14.00" fill="#666666">[int(11)]</text>
<polygon fill="none" stroke="#000000" points="280,-472.5 280,-502.5 449,-502.5 449,-472.5 280,-472.5"/>
<text text-anchor="start" x="287" y="-483.9" font-family="Arial" font-size="14.00" fill="#000000">secret </text>
<text text-anchor="start" x="329.007" y="-483.9" font-family="Arial" font-size="14.00" fill="#666666">[text]</text>
<polygon fill="none" stroke="#000000" points="280,-442.5 280,-472.5 449,-472.5 449,-442.5 280,-442.5"/>
<text text-anchor="start" x="287" y="-453.9" font-family="Arial" font-size="14.00" fill="#000000">character_id </text>
<text text-anchor="start" x="367.9046" y="-453.9" font-family="Arial" font-size="14.00" fill="#666666">[bigint(20)]</text>
<polygon fill="none" stroke="#000000" points="280,-412.5 280,-442.5 449,-442.5 449,-412.5 280,-412.5"/>
<text text-anchor="start" x="287" y="-423.9" font-family="Arial" font-size="14.00" fill="#000000">created_at </text>
<text text-anchor="start" x="357.028" y="-423.9" font-family="Arial" font-size="14.00" fill="#666666">[datetime(6)]</text>
<polygon fill="none" stroke="#000000" points="280,-382.5 280,-412.5 449,-412.5 449,-382.5 280,-382.5"/>
<text text-anchor="start" x="287" y="-393.9" font-family="Arial" font-size="14.00" fill="#000000">updated_at </text>
<text text-anchor="start" x="360.9326" y="-393.9" font-family="Arial" font-size="14.00" fill="#666666">[datetime(6)]</text>
<polygon fill="none" stroke="#000000" stroke-width="3" points="278,-381.5 278,-599.5 450,-599.5 450,-381.5 278,-381.5"/>
</g>
<!-- characters -->
<g id="node3" class="node">
<title>characters</title>
<polygon fill="#efefef" stroke="transparent" points="262,-222.5 262,-257.5 468,-257.5 468,-222.5 262,-222.5"/>
<polygon fill="none" stroke="#000000" points="262,-222.5 262,-257.5 468,-257.5 468,-222.5 262,-222.5"/>
<text text-anchor="start" x="274.3674" y="-235.3" font-family="Arial Bold" font-size="18.00" fill="#000000">characters</text>
<text text-anchor="start" x="358.3788" y="-235.3" font-family="Arial" font-size="14.00" fill="#000000"> </text>
<text text-anchor="start" x="362.2694" y="-235.3" font-family="Arial" font-size="14.00" fill="#666666">[BASE TABLE]</text>
<polygon fill="none" stroke="#000000" points="262,-192.5 262,-222.5 468,-222.5 468,-192.5 262,-192.5"/>
<text text-anchor="start" x="269" y="-203.9" font-family="Arial" font-size="14.00" fill="#000000">id </text>
<text text-anchor="start" x="283.7798" y="-203.9" font-family="Arial" font-size="14.00" fill="#666666">[bigint(20)]</text>
<polygon fill="none" stroke="#000000" points="262,-162.5 262,-192.5 468,-192.5 468,-162.5 262,-162.5"/>
<text text-anchor="start" x="268.9285" y="-173.9" font-family="Arial" font-size="14.00" fill="#000000">character_name </text>
<text text-anchor="start" x="373.9523" y="-173.9" font-family="Arial" font-size="14.00" fill="#666666">[varchar(255)]</text>
<polygon fill="none" stroke="#000000" points="262,-132.5 262,-162.5 468,-162.5 468,-132.5 262,-132.5"/>
<text text-anchor="start" x="269" y="-143.9" font-family="Arial" font-size="14.00" fill="#000000">pc_number </text>
<text text-anchor="start" x="342.9074" y="-143.9" font-family="Arial" font-size="14.00" fill="#666666">[int(11)]</text>
<polygon fill="none" stroke="#000000" points="262,-102.5 262,-132.5 468,-132.5 468,-102.5 262,-102.5"/>
<text text-anchor="start" x="269" y="-113.9" font-family="Arial" font-size="14.00" fill="#000000">room_id </text>
<text text-anchor="start" x="323.4488" y="-113.9" font-family="Arial" font-size="14.00" fill="#666666">[bigint(20)]</text>
<polygon fill="none" stroke="#000000" points="262,-72.5 262,-102.5 468,-102.5 468,-72.5 262,-72.5"/>
<text text-anchor="start" x="269" y="-83.9" font-family="Arial" font-size="14.00" fill="#000000">created_at </text>
<text text-anchor="start" x="339.028" y="-83.9" font-family="Arial" font-size="14.00" fill="#666666">[datetime(6)]</text>
<polygon fill="none" stroke="#000000" points="262,-42.5 262,-72.5 468,-72.5 468,-42.5 262,-42.5"/>
<text text-anchor="start" x="269" y="-53.9" font-family="Arial" font-size="14.00" fill="#000000">updated_at </text>
<text text-anchor="start" x="342.9326" y="-53.9" font-family="Arial" font-size="14.00" fill="#666666">[datetime(6)]</text>
</g>
<!-- secrets&#45;&gt;characters -->
<g id="edge2" class="edge">
<title>secrets:character_id&#45;&gt;characters:id</title>
<path fill="none" stroke="#000000" d="M458.9782,-456.427C499.8275,-446.8482 480.7715,-375.4713 449,-337 395.1054,-271.7403 315.8946,-366.2597 262,-301 235.5386,-268.9585 220.4444,-207.5 262,-207.5"/>
<polygon fill="#000000" stroke="#000000" points="458.9427,-456.4308 448.5188,-453.0258 453.9713,-456.9654 449,-457.5 449,-457.5 449,-457.5 453.9713,-456.9654 449.4812,-461.9742 458.9427,-456.4308 458.9427,-456.4308"/>
<text text-anchor="start" x="455.719" y="-467.5" font-family="Arial" font-size="10.00" fill="#000000">FOREIGN KEY (character_id) REFERENCES characters (id)</text>
</g>
<!-- open_secrets -->
<g id="node2" class="node">
<title>open_secrets</title>
<polygon fill="#efefef" stroke="transparent" points="255,-902.5 255,-937.5 474,-937.5 474,-902.5 255,-902.5"/>
<polygon fill="none" stroke="#000000" points="255,-902.5 255,-937.5 474,-937.5 474,-902.5 255,-902.5"/>
<text text-anchor="start" x="261.8542" y="-915.3" font-family="Arial Bold" font-size="18.00" fill="#000000">open_secrets</text>
<text text-anchor="start" x="369.892" y="-915.3" font-family="Arial" font-size="14.00" fill="#000000"> </text>
<text text-anchor="start" x="373.7826" y="-915.3" font-family="Arial" font-size="14.00" fill="#666666">[BASE TABLE]</text>
<polygon fill="none" stroke="#000000" points="255,-872.5 255,-902.5 474,-902.5 474,-872.5 255,-872.5"/>
<text text-anchor="start" x="262" y="-883.9" font-family="Arial" font-size="14.00" fill="#000000">id </text>
<text text-anchor="start" x="276.7798" y="-883.9" font-family="Arial" font-size="14.00" fill="#666666">[bigint(20)]</text>
<polygon fill="none" stroke="#000000" points="255,-842.5 255,-872.5 474,-872.5 474,-842.5 255,-842.5"/>
<text text-anchor="start" x="262" y="-853.9" font-family="Arial" font-size="14.00" fill="#000000">secret_unveil_to </text>
<text text-anchor="start" x="367.8064" y="-853.9" font-family="Arial" font-size="14.00" fill="#666666">[int(11)]</text>
<polygon fill="none" stroke="#000000" points="255,-812.5 255,-842.5 474,-842.5 474,-812.5 255,-812.5"/>
<text text-anchor="start" x="262" y="-823.9" font-family="Arial" font-size="14.00" fill="#000000">unveiled_id </text>
<text text-anchor="start" x="336.6886" y="-823.9" font-family="Arial" font-size="14.00" fill="#666666">[int(11)]</text>
<polygon fill="none" stroke="#000000" points="255,-782.5 255,-812.5 474,-812.5 474,-782.5 255,-782.5"/>
<text text-anchor="start" x="262" y="-793.9" font-family="Arial" font-size="14.00" fill="#000000">secret_id </text>
<text text-anchor="start" x="322.6788" y="-793.9" font-family="Arial" font-size="14.00" fill="#666666">[bigint(20)]</text>
<polygon fill="none" stroke="#000000" points="255,-752.5 255,-782.5 474,-782.5 474,-752.5 255,-752.5"/>
<text text-anchor="start" x="262" y="-763.9" font-family="Arial" font-size="14.00" fill="#000000">created_at </text>
<text text-anchor="start" x="332.028" y="-763.9" font-family="Arial" font-size="14.00" fill="#666666">[datetime(6)]</text>
<polygon fill="none" stroke="#000000" points="255,-722.5 255,-752.5 474,-752.5 474,-722.5 255,-722.5"/>
<text text-anchor="start" x="262" y="-733.9" font-family="Arial" font-size="14.00" fill="#000000">updated_at </text>
<text text-anchor="start" x="335.9326" y="-733.9" font-family="Arial" font-size="14.00" fill="#666666">[datetime(6)]</text>
</g>
<!-- open_secrets&#45;&gt;secrets -->
<g id="edge1" class="edge">
<title>open_secrets:secret_id&#45;&gt;secrets:id</title>
<path fill="none" stroke="#000000" d="M244.9302,-796.7828C144.9818,-782.1191 171.8243,-547.5 280,-547.5"/>
<polygon fill="#000000" stroke="#000000" points="245.0253,-796.7895 254.6803,-801.9886 250.0126,-797.1448 255,-797.5 255,-797.5 255,-797.5 250.0126,-797.1448 255.3197,-793.0114 245.0253,-796.7895 245.0253,-796.7895"/>
<text text-anchor="start" x="7.166" y="-807.5" font-family="Arial" font-size="10.00" fill="#000000">FOREIGN KEY (secret_id) REFERENCES secrets (id)</text>
</g>
</g>
</svg>
