<?xml version="1.0" encoding="UTF-8" standalone="no"?>
<!DOCTYPE svg PUBLIC "-//W3C//DTD SVG 1.1//EN"
 "http://www.w3.org/Graphics/SVG/1.1/DTD/svg11.dtd">
<!-- Generated by graphviz version 2.40.1 (20161225.0304)
 -->
<!-- Title: session_logs Pages: 1 -->
<svg width="521pt" height="892pt"
 viewBox="0.00 0.00 520.50 892.00" xmlns="http://www.w3.org/2000/svg" xmlns:xlink="http://www.w3.org/1999/xlink">
<g id="graph0" class="graph" transform="scale(1 1) rotate(0) translate(4 888)">
<title>session_logs</title>
<polygon fill="#ffffff" stroke="transparent" points="-4,4 -4,-888 516.5,-888 516.5,4 -4,4"/>
<!-- session_logs -->
<g id="node1" class="node">
<title>session_logs</title>
<polygon fill="#efefef" stroke="transparent" points="240,-802.5 240,-837.5 455,-837.5 455,-802.5 240,-802.5"/>
<polygon fill="none" stroke="#000000" points="240,-802.5 240,-837.5 455,-837.5 455,-802.5 240,-802.5"/>
<text text-anchor="start" x="246.8603" y="-815.3" font-family="Arial Bold" font-size="18.00" fill="#000000">session_logs</text>
<text text-anchor="start" x="350.8859" y="-815.3" font-family="Arial" font-size="14.00" fill="#000000"> </text>
<text text-anchor="start" x="354.7765" y="-815.3" font-family="Arial" font-size="14.00" fill="#666666">[BASE TABLE]</text>
<polygon fill="none" stroke="#000000" points="240,-772.5 240,-802.5 455,-802.5 455,-772.5 240,-772.5"/>
<text text-anchor="start" x="247" y="-783.9" font-family="Arial" font-size="14.00" fill="#000000">id </text>
<text text-anchor="start" x="261.7798" y="-783.9" font-family="Arial" font-size="14.00" fill="#666666">[bigint(20)]</text>
<polygon fill="none" stroke="#000000" points="240,-742.5 240,-772.5 455,-772.5 455,-742.5 240,-742.5"/>
<text text-anchor="start" x="247" y="-753.9" font-family="Arial" font-size="14.00" fill="#000000">title </text>
<text text-anchor="start" x="272.6676" y="-753.9" font-family="Arial" font-size="14.00" fill="#666666">[varchar(255)]</text>
<polygon fill="none" stroke="#000000" points="240,-712.5 240,-742.5 455,-742.5 455,-712.5 240,-712.5"/>
<text text-anchor="start" x="247" y="-723.9" font-family="Arial" font-size="14.00" fill="#000000">log </text>
<text text-anchor="start" x="269.5624" y="-723.9" font-family="Arial" font-size="14.00" fill="#666666">[text]</text>
<polygon fill="none" stroke="#000000" points="240,-682.5 240,-712.5 455,-712.5 455,-682.5 240,-682.5"/>
<text text-anchor="start" x="247" y="-693.9" font-family="Arial" font-size="14.00" fill="#000000">user_id </text>
<text text-anchor="start" x="296.7882" y="-693.9" font-family="Arial" font-size="14.00" fill="#666666">[bigint(20)]</text>
<polygon fill="none" stroke="#000000" points="240,-652.5 240,-682.5 455,-682.5 455,-652.5 240,-652.5"/>
<text text-anchor="start" x="247" y="-663.9" font-family="Arial" font-size="14.00" fill="#000000">created_at </text>
<text text-anchor="start" x="317.028" y="-663.9" font-family="Arial" font-size="14.00" fill="#666666">[datetime(6)]</text>
<polygon fill="none" stroke="#000000" points="240,-622.5 240,-652.5 455,-652.5 455,-622.5 240,-622.5"/>
<text text-anchor="start" x="247" y="-633.9" font-family="Arial" font-size="14.00" fill="#000000">updated_at </text>
<text text-anchor="start" x="320.9326" y="-633.9" font-family="Arial" font-size="14.00" fill="#666666">[datetime(6)]</text>
<polygon fill="none" stroke="#000000" stroke-width="3" points="238,-621.5 238,-839.5 456,-839.5 456,-621.5 238,-621.5"/>
</g>
<!-- users -->
<g id="node2" class="node">
<title>users</title>
<polygon fill="#efefef" stroke="transparent" points="225,-462.5 225,-497.5 470,-497.5 470,-462.5 225,-462.5"/>
<polygon fill="none" stroke="#000000" points="225,-462.5 225,-497.5 470,-497.5 470,-462.5 225,-462.5"/>
<text text-anchor="start" x="276.8708" y="-475.3" font-family="Arial Bold" font-size="18.00" fill="#000000">users</text>
<text text-anchor="start" x="320.8754" y="-475.3" font-family="Arial" font-size="14.00" fill="#000000"> </text>
<text text-anchor="start" x="324.766" y="-475.3" font-family="Arial" font-size="14.00" fill="#666666">[BASE TABLE]</text>
<polygon fill="none" stroke="#000000" points="225,-432.5 225,-462.5 470,-462.5 470,-432.5 225,-432.5"/>
<text text-anchor="start" x="232" y="-443.9" font-family="Arial" font-size="14.00" fill="#000000">id </text>
<text text-anchor="start" x="246.7798" y="-443.9" font-family="Arial" font-size="14.00" fill="#666666">[bigint(20)]</text>
<polygon fill="none" stroke="#000000" points="225,-402.5 225,-432.5 470,-432.5 470,-402.5 225,-402.5"/>
<text text-anchor="start" x="232" y="-413.9" font-family="Arial" font-size="14.00" fill="#000000">name </text>
<text text-anchor="start" x="270.899" y="-413.9" font-family="Arial" font-size="14.00" fill="#666666">[varchar(255)]</text>
<polygon fill="none" stroke="#000000" points="225,-372.5 225,-402.5 470,-402.5 470,-372.5 225,-372.5"/>
<text text-anchor="start" x="232" y="-383.9" font-family="Arial" font-size="14.00" fill="#000000">email </text>
<text text-anchor="start" x="269.3296" y="-383.9" font-family="Arial" font-size="14.00" fill="#666666">[varchar(255)]</text>
<polygon fill="none" stroke="#000000" points="225,-342.5 225,-372.5 470,-372.5 470,-342.5 225,-342.5"/>
<text text-anchor="start" x="232" y="-353.9" font-family="Arial" font-size="14.00" fill="#000000">encrypted_password </text>
<text text-anchor="start" x="365.035" y="-353.9" font-family="Arial" font-size="14.00" fill="#666666">[varchar(255)]</text>
<polygon fill="none" stroke="#000000" points="225,-312.5 225,-342.5 470,-342.5 470,-312.5 225,-312.5"/>
<text text-anchor="start" x="231.5863" y="-323.9" font-family="Arial" font-size="14.00" fill="#000000">reset_password_token </text>
<text text-anchor="start" x="376.2945" y="-323.9" font-family="Arial" font-size="14.00" fill="#666666">[varchar(255)]</text>
<polygon fill="none" stroke="#000000" points="225,-282.5 225,-312.5 470,-312.5 470,-282.5 225,-282.5"/>
<text text-anchor="start" x="232" y="-293.9" font-family="Arial" font-size="14.00" fill="#000000">reset_password_sent_at </text>
<text text-anchor="start" x="388.3814" y="-293.9" font-family="Arial" font-size="14.00" fill="#666666">[datetime]</text>
<polygon fill="none" stroke="#000000" points="225,-252.5 225,-282.5 470,-282.5 470,-252.5 225,-252.5"/>
<text text-anchor="start" x="232" y="-263.9" font-family="Arial" font-size="14.00" fill="#000000">remember_created_at </text>
<text text-anchor="start" x="373.5834" y="-263.9" font-family="Arial" font-size="14.00" fill="#666666">[datetime]</text>
<polygon fill="none" stroke="#000000" points="225,-222.5 225,-252.5 470,-252.5 470,-222.5 225,-222.5"/>
<text text-anchor="start" x="232" y="-233.9" font-family="Arial" font-size="14.00" fill="#000000">sign_in_count </text>
<text text-anchor="start" x="322.2552" y="-233.9" font-family="Arial" font-size="14.00" fill="#666666">[int(11)]</text>
<polygon fill="none" stroke="#000000" points="225,-192.5 225,-222.5 470,-222.5 470,-192.5 225,-192.5"/>
<text text-anchor="start" x="232" y="-203.9" font-family="Arial" font-size="14.00" fill="#000000">current_sign_in_at </text>
<text text-anchor="start" x="351.0322" y="-203.9" font-family="Arial" font-size="14.00" fill="#666666">[datetime]</text>
<polygon fill="none" stroke="#000000" points="225,-162.5 225,-192.5 470,-192.5 470,-162.5 225,-162.5"/>
<text text-anchor="start" x="232" y="-173.9" font-family="Arial" font-size="14.00" fill="#000000">last_sign_in_at </text>
<text text-anchor="start" x="329.2524" y="-173.9" font-family="Arial" font-size="14.00" fill="#666666">[datetime]</text>
<polygon fill="none" stroke="#000000" points="225,-132.5 225,-162.5 470,-162.5 470,-132.5 225,-132.5"/>
<text text-anchor="start" x="232" y="-143.9" font-family="Arial" font-size="14.00" fill="#000000">current_sign_in_ip </text>
<text text-anchor="start" x="350.2482" y="-143.9" font-family="Arial" font-size="14.00" fill="#666666">[varchar(255)]</text>
<polygon fill="none" stroke="#000000" points="225,-102.5 225,-132.5 470,-132.5 470,-102.5 225,-102.5"/>
<text text-anchor="start" x="232" y="-113.9" font-family="Arial" font-size="14.00" fill="#000000">last_sign_in_ip </text>
<text text-anchor="start" x="328.4684" y="-113.9" font-family="Arial" font-size="14.00" fill="#666666">[varchar(255)]</text>
<polygon fill="none" stroke="#000000" points="225,-72.5 225,-102.5 470,-102.5 470,-72.5 225,-72.5"/>
<text text-anchor="start" x="232" y="-83.9" font-family="Arial" font-size="14.00" fill="#000000">created_at </text>
<text text-anchor="start" x="302.028" y="-83.9" font-family="Arial" font-size="14.00" fill="#666666">[datetime(6)]</text>
<polygon fill="none" stroke="#000000" points="225,-42.5 225,-72.5 470,-72.5 470,-42.5 225,-42.5"/>
<text text-anchor="start" x="232" y="-53.9" font-family="Arial" font-size="14.00" fill="#000000">updated_at </text>
<text text-anchor="start" x="305.9326" y="-53.9" font-family="Arial" font-size="14.00" fill="#666666">[datetime(6)]</text>
</g>
<!-- session_logs&#45;&gt;users -->
<g id="edge1" class="edge">
<title>session_logs:user_id&#45;&gt;users:id</title>
<path fill="none" stroke="#000000" d="M230.3445,-694.8615C182.7871,-668.143 172.7143,-447.5 225,-447.5"/>
<polygon fill="#000000" stroke="#000000" points="230.3537,-694.864 238.8138,-701.8409 235.1768,-696.182 240,-697.5 240,-697.5 240,-697.5 235.1768,-696.182 241.1862,-693.1591 230.3537,-694.864 230.3537,-694.864"/>
<text text-anchor="start" x="6.945" y="-707.5" font-family="Arial" font-size="10.00" fill="#000000">FOREIGN KEY (user_id) REFERENCES users (id)</text>
</g>
</g>
</svg>
