<?xml version="1.0" encoding="UTF-8" standalone="no"?>
<!DOCTYPE svg PUBLIC "-//W3C//DTD SVG 1.1//EN"
 "http://www.w3.org/Graphics/SVG/1.1/DTD/svg11.dtd">
<!-- Generated by graphviz version 2.40.1 (20161225.0304)
 -->
<!-- Title: users Pages: 1 -->
<svg width="611pt" height="892pt"
 viewBox="0.00 0.00 610.50 892.00" xmlns="http://www.w3.org/2000/svg" xmlns:xlink="http://www.w3.org/1999/xlink">
<g id="graph0" class="graph" transform="scale(1 1) rotate(0) translate(4 888)">
<title>users</title>
<polygon fill="#ffffff" stroke="transparent" points="-4,4 -4,-888 606.5,-888 606.5,4 -4,4"/>
<!-- users -->
<g id="node1" class="node">
<title>users</title>
<polygon fill="#efefef" stroke="transparent" points="182,-465.5 182,-500.5 427,-500.5 427,-465.5 182,-465.5"/>
<polygon fill="none" stroke="#000000" points="182,-465.5 182,-500.5 427,-500.5 427,-465.5 182,-465.5"/>
<text text-anchor="start" x="233.8708" y="-478.3" font-family="Arial Bold" font-size="18.00" fill="#000000">users</text>
<text text-anchor="start" x="277.8754" y="-478.3" font-family="Arial" font-size="14.00" fill="#000000"> </text>
<text text-anchor="start" x="281.766" y="-478.3" font-family="Arial" font-size="14.00" fill="#666666">[BASE TABLE]</text>
<polygon fill="none" stroke="#000000" points="182,-435.5 182,-465.5 427,-465.5 427,-435.5 182,-435.5"/>
<text text-anchor="start" x="189" y="-446.9" font-family="Arial" font-size="14.00" fill="#000000">id </text>
<text text-anchor="start" x="203.7798" y="-446.9" font-family="Arial" font-size="14.00" fill="#666666">[bigint(20)]</text>
<polygon fill="none" stroke="#000000" points="182,-405.5 182,-435.5 427,-435.5 427,-405.5 182,-405.5"/>
<text text-anchor="start" x="189" y="-416.9" font-family="Arial" font-size="14.00" fill="#000000">name </text>
<text text-anchor="start" x="227.899" y="-416.9" font-family="Arial" font-size="14.00" fill="#666666">[varchar(255)]</text>
<polygon fill="none" stroke="#000000" points="182,-375.5 182,-405.5 427,-405.5 427,-375.5 182,-375.5"/>
<text text-anchor="start" x="189" y="-386.9" font-family="Arial" font-size="14.00" fill="#000000">email </text>
<text text-anchor="start" x="226.3296" y="-386.9" font-family="Arial" font-size="14.00" fill="#666666">[varchar(255)]</text>
<polygon fill="none" stroke="#000000" points="182,-345.5 182,-375.5 427,-375.5 427,-345.5 182,-345.5"/>
<text text-anchor="start" x="189" y="-356.9" font-family="Arial" font-size="14.00" fill="#000000">encrypted_password </text>
<text text-anchor="start" x="322.035" y="-356.9" font-family="Arial" font-size="14.00" fill="#666666">[varchar(255)]</text>
<polygon fill="none" stroke="#000000" points="182,-315.5 182,-345.5 427,-345.5 427,-315.5 182,-315.5"/>
<text text-anchor="start" x="188.5863" y="-326.9" font-family="Arial" font-size="14.00" fill="#000000">reset_password_token </text>
<text text-anchor="start" x="333.2945" y="-326.9" font-family="Arial" font-size="14.00" fill="#666666">[varchar(255)]</text>
<polygon fill="none" stroke="#000000" points="182,-285.5 182,-315.5 427,-315.5 427,-285.5 182,-285.5"/>
<text text-anchor="start" x="189" y="-296.9" font-family="Arial" font-size="14.00" fill="#000000">reset_password_sent_at </text>
<text text-anchor="start" x="345.3814" y="-296.9" font-family="Arial" font-size="14.00" fill="#666666">[datetime]</text>
<polygon fill="none" stroke="#000000" points="182,-255.5 182,-285.5 427,-285.5 427,-255.5 182,-255.5"/>
<text text-anchor="start" x="189" y="-266.9" font-family="Arial" font-size="14.00" fill="#000000">remember_created_at </text>
<text text-anchor="start" x="330.5834" y="-266.9" font-family="Arial" font-size="14.00" fill="#666666">[datetime]</text>
<polygon fill="none" stroke="#000000" points="182,-225.5 182,-255.5 427,-255.5 427,-225.5 182,-225.5"/>
<text text-anchor="start" x="189" y="-236.9" font-family="Arial" font-size="14.00" fill="#000000">sign_in_count </text>
<text text-anchor="start" x="279.2552" y="-236.9" font-family="Arial" font-size="14.00" fill="#666666">[int(11)]</text>
<polygon fill="none" stroke="#000000" points="182,-195.5 182,-225.5 427,-225.5 427,-195.5 182,-195.5"/>
<text text-anchor="start" x="189" y="-206.9" font-family="Arial" font-size="14.00" fill="#000000">current_sign_in_at </text>
<text text-anchor="start" x="308.0322" y="-206.9" font-family="Arial" font-size="14.00" fill="#666666">[datetime]</text>
<polygon fill="none" stroke="#000000" points="182,-165.5 182,-195.5 427,-195.5 427,-165.5 182,-165.5"/>
<text text-anchor="start" x="189" y="-176.9" font-family="Arial" font-size="14.00" fill="#000000">last_sign_in_at </text>
<text text-anchor="start" x="286.2524" y="-176.9" font-family="Arial" font-size="14.00" fill="#666666">[datetime]</text>
<polygon fill="none" stroke="#000000" points="182,-135.5 182,-165.5 427,-165.5 427,-135.5 182,-135.5"/>
<text text-anchor="start" x="189" y="-146.9" font-family="Arial" font-size="14.00" fill="#000000">current_sign_in_ip </text>
<text text-anchor="start" x="307.2482" y="-146.9" font-family="Arial" font-size="14.00" fill="#666666">[varchar(255)]</text>
<polygon fill="none" stroke="#000000" points="182,-105.5 182,-135.5 427,-135.5 427,-105.5 182,-105.5"/>
<text text-anchor="start" x="189" y="-116.9" font-family="Arial" font-size="14.00" fill="#000000">last_sign_in_ip </text>
<text text-anchor="start" x="285.4684" y="-116.9" font-family="Arial" font-size="14.00" fill="#666666">[varchar(255)]</text>
<polygon fill="none" stroke="#000000" points="182,-75.5 182,-105.5 427,-105.5 427,-75.5 182,-75.5"/>
<text text-anchor="start" x="189" y="-86.9" font-family="Arial" font-size="14.00" fill="#000000">created_at </text>
<text text-anchor="start" x="259.028" y="-86.9" font-family="Arial" font-size="14.00" fill="#666666">[datetime(6)]</text>
<polygon fill="none" stroke="#000000" points="182,-45.5 182,-75.5 427,-75.5 427,-45.5 182,-45.5"/>
<text text-anchor="start" x="189" y="-56.9" font-family="Arial" font-size="14.00" fill="#000000">updated_at </text>
<text text-anchor="start" x="262.9326" y="-56.9" font-family="Arial" font-size="14.00" fill="#666666">[datetime(6)]</text>
<polygon fill="none" stroke="#000000" stroke-width="3" points="180,-44.5 180,-502.5 428,-502.5 428,-44.5 180,-44.5"/>
</g>
<!-- roles -->
<g id="node2" class="node">
<title>roles</title>
<polygon fill="#efefef" stroke="transparent" points="74,-805.5 74,-840.5 240,-840.5 240,-805.5 74,-805.5"/>
<polygon fill="none" stroke="#000000" points="74,-805.5 74,-840.5 240,-840.5 240,-805.5 74,-805.5"/>
<text text-anchor="start" x="88.8737" y="-818.3" font-family="Arial Bold" font-size="18.00" fill="#000000">roles</text>
<text text-anchor="start" x="127.8725" y="-818.3" font-family="Arial" font-size="14.00" fill="#000000"> </text>
<text text-anchor="start" x="131.7631" y="-818.3" font-family="Arial" font-size="14.00" fill="#666666">[BASE TABLE]</text>
<polygon fill="none" stroke="#000000" points="74,-775.5 74,-805.5 240,-805.5 240,-775.5 74,-775.5"/>
<text text-anchor="start" x="81" y="-786.9" font-family="Arial" font-size="14.00" fill="#000000">id </text>
<text text-anchor="start" x="95.7798" y="-786.9" font-family="Arial" font-size="14.00" fill="#666666">[bigint(20)]</text>
<polygon fill="none" stroke="#000000" points="74,-745.5 74,-775.5 240,-775.5 240,-745.5 74,-745.5"/>
<text text-anchor="start" x="81" y="-756.9" font-family="Arial" font-size="14.00" fill="#000000">role </text>
<text text-anchor="start" x="108.223" y="-756.9" font-family="Arial" font-size="14.00" fill="#666666">[int(11)]</text>
<polygon fill="none" stroke="#000000" points="74,-715.5 74,-745.5 240,-745.5 240,-715.5 74,-715.5"/>
<text text-anchor="start" x="81" y="-726.9" font-family="Arial" font-size="14.00" fill="#000000">user_id </text>
<text text-anchor="start" x="130.7882" y="-726.9" font-family="Arial" font-size="14.00" fill="#666666">[bigint(20)]</text>
<polygon fill="none" stroke="#000000" points="74,-685.5 74,-715.5 240,-715.5 240,-685.5 74,-685.5"/>
<text text-anchor="start" x="81" y="-696.9" font-family="Arial" font-size="14.00" fill="#000000">room_id </text>
<text text-anchor="start" x="135.4488" y="-696.9" font-family="Arial" font-size="14.00" fill="#666666">[bigint(20)]</text>
<polygon fill="none" stroke="#000000" points="74,-655.5 74,-685.5 240,-685.5 240,-655.5 74,-655.5"/>
<text text-anchor="start" x="81" y="-666.9" font-family="Arial" font-size="14.00" fill="#000000">created_at </text>
<text text-anchor="start" x="151.028" y="-666.9" font-family="Arial" font-size="14.00" fill="#666666">[datetime(6)]</text>
<polygon fill="none" stroke="#000000" points="74,-625.5 74,-655.5 240,-655.5 240,-625.5 74,-625.5"/>
<text text-anchor="start" x="80.7518" y="-636.9" font-family="Arial" font-size="14.00" fill="#000000">updated_at </text>
<text text-anchor="start" x="154.6844" y="-636.9" font-family="Arial" font-size="14.00" fill="#666666">[datetime(6)]</text>
</g>
<!-- roles&#45;&gt;users -->
<g id="edge1" class="edge">
<title>roles:user_id&#45;&gt;users:id</title>
<path fill="none" stroke="#000000" d="M250.2025,-729.6541C301.7453,-720.3863 270.0632,-637.0434 240,-583 225.2511,-556.4865 196.7489,-573.5135 182,-547 161.1506,-509.5199 139.1111,-450.5 182,-450.5"/>
<polygon fill="#000000" stroke="#000000" points="249.9658,-729.6737 239.6282,-726.0154 244.9829,-730.0868 240,-730.5 240,-730.5 240,-730.5 244.9829,-730.0868 240.3718,-734.9846 249.9658,-729.6737 249.9658,-729.6737"/>
<text text-anchor="start" x="6.945" y="-740.5" font-family="Arial" font-size="10.00" fill="#000000">FOREIGN KEY (user_id) REFERENCES users (id)</text>
</g>
<!-- session_logs -->
<g id="node3" class="node">
<title>session_logs</title>
<polygon fill="#efefef" stroke="transparent" points="345,-805.5 345,-840.5 560,-840.5 560,-805.5 345,-805.5"/>
<polygon fill="none" stroke="#000000" points="345,-805.5 345,-840.5 560,-840.5 560,-805.5 345,-805.5"/>
<text text-anchor="start" x="351.8603" y="-818.3" font-family="Arial Bold" font-size="18.00" fill="#000000">session_logs</text>
<text text-anchor="start" x="455.8859" y="-818.3" font-family="Arial" font-size="14.00" fill="#000000"> </text>
<text text-anchor="start" x="459.7765" y="-818.3" font-family="Arial" font-size="14.00" fill="#666666">[BASE TABLE]</text>
<polygon fill="none" stroke="#000000" points="345,-775.5 345,-805.5 560,-805.5 560,-775.5 345,-775.5"/>
<text text-anchor="start" x="352" y="-786.9" font-family="Arial" font-size="14.00" fill="#000000">id </text>
<text text-anchor="start" x="366.7798" y="-786.9" font-family="Arial" font-size="14.00" fill="#666666">[bigint(20)]</text>
<polygon fill="none" stroke="#000000" points="345,-745.5 345,-775.5 560,-775.5 560,-745.5 345,-745.5"/>
<text text-anchor="start" x="352" y="-756.9" font-family="Arial" font-size="14.00" fill="#000000">title </text>
<text text-anchor="start" x="377.6676" y="-756.9" font-family="Arial" font-size="14.00" fill="#666666">[varchar(255)]</text>
<polygon fill="none" stroke="#000000" points="345,-715.5 345,-745.5 560,-745.5 560,-715.5 345,-715.5"/>
<text text-anchor="start" x="352" y="-726.9" font-family="Arial" font-size="14.00" fill="#000000">log </text>
<text text-anchor="start" x="374.5624" y="-726.9" font-family="Arial" font-size="14.00" fill="#666666">[text]</text>
<polygon fill="none" stroke="#000000" points="345,-685.5 345,-715.5 560,-715.5 560,-685.5 345,-685.5"/>
<text text-anchor="start" x="352" y="-696.9" font-family="Arial" font-size="14.00" fill="#000000">user_id </text>
<text text-anchor="start" x="401.7882" y="-696.9" font-family="Arial" font-size="14.00" fill="#666666">[bigint(20)]</text>
<polygon fill="none" stroke="#000000" points="345,-655.5 345,-685.5 560,-685.5 560,-655.5 345,-655.5"/>
<text text-anchor="start" x="352" y="-666.9" font-family="Arial" font-size="14.00" fill="#000000">created_at </text>
<text text-anchor="start" x="422.028" y="-666.9" font-family="Arial" font-size="14.00" fill="#666666">[datetime(6)]</text>
<polygon fill="none" stroke="#000000" points="345,-625.5 345,-655.5 560,-655.5 560,-625.5 345,-625.5"/>
<text text-anchor="start" x="352" y="-636.9" font-family="Arial" font-size="14.00" fill="#000000">updated_at </text>
<text text-anchor="start" x="425.9326" y="-636.9" font-family="Arial" font-size="14.00" fill="#666666">[datetime(6)]</text>
</g>
<!-- session_logs&#45;&gt;users -->
<g id="edge2" class="edge">
<title>session_logs:user_id&#45;&gt;users:id</title>
<path fill="none" stroke="#000000" d="M334.5974,-699.3233C296.3177,-689.7143 318.5636,-623.4782 345,-583 366.7643,-549.6756 405.2357,-580.3244 427,-547 450.4522,-511.0911 469.8889,-450.5 427,-450.5"/>
<polygon fill="#000000" stroke="#000000" points="335.0634,-699.3759 344.4942,-704.9715 340.0317,-699.9379 345,-700.5 345,-700.5 345,-700.5 340.0317,-699.9379 345.5058,-696.0285 335.0634,-699.3759 335.0634,-699.3759"/>
<text text-anchor="start" x="291.945" y="-684.5" font-family="Arial" font-size="10.00" fill="#000000">FOREIGN KEY (user_id) REFERENCES users (id)</text>
</g>
</g>
</svg>
